<?xml version="1.0" encoding="UTF-8"?>
<!DOCTYPE svg PUBLIC "-//W3C//DTD SVG 1.1//EN" "http://www.w3.org/Graphics/SVG/1.1/DTD/svg11.dtd">
<!-- Creator: CorelDRAW X7 -->
<svg xmlns="http://www.w3.org/2000/svg" xml:space="preserve" width="1.77403in" height="1.23809in" version="1.1" style="shape-rendering:geometricPrecision; text-rendering:geometricPrecision; image-rendering:optimizeQuality; fill-rule:evenodd; clip-rule:evenodd"
viewBox="0 0 1774 1238"
 xmlns:xlink="http://www.w3.org/1999/xlink"
 xmlns:svg="http://www.w3.org/2000/svg">
 <defs>
  <style type="text/css">
   <![CDATA[
    .str0 {stroke:#332C2B;stroke-width:3}
    .fil0 {fill:none}
    .fil1 {fill:#0C0B8B}
    .fil3 {fill:#D5D9F6}
    .fil2 {fill:white}
    .fil4 {fill:#0C0B8B;fill-rule:nonzero}
    .fil5 {fill:#332C2B;fill-rule:nonzero}
   ]]>
  </style>
 </defs>
<symbol id="format_x0020_logo_x0020_utk_x0020_jpg" viewBox="-2789 -3219 7351 7675">
 <rect class="fil0 str0" x="-2787" y="-3217" width="7348" height="7672"/>
</symbol>
 <g id="Layer_x0020_1">
  <metadata id="CorelCorpID_0Corel-Layer"/>
 </g>
 <g id="svg2">
  <metadata id="CorelCorpID_1Corel-Layer"/>
  <path class="fil1" d="M1252 365c0,-201 -163,-365 -365,-365 -202,0 -365,164 -365,365 0,202 163,365 365,365 202,0 365,-163 365,-365z"/>
  <path class="fil2" d="M881 113c0,0 38,25 43,65 5,40 -33,74 -33,74l10 7c0,0 20,-27 63,-32 43,-5 84,15 84,15 0,0 -34,50 -78,53 -34,3 -58,-13 -58,-13 0,0 -20,34 -23,102 0,8 0,15 -1,23 6,-1 12,-3 12,-3 0,0 -5,-64 44,-82 49,-17 110,10 110,10 0,0 -34,64 -74,85 -41,22 -65,22 -65,22l-3 69 -12 0 0 -66c0,0 -6,1 -12,1 -1,46 -1,84 -1,84l-6 0 -6 0c0,0 1,-38 0,-84 -6,0 -12,-1 -12,-1l0 66 -13 0 -2 -69c0,0 -25,0 -65,-22 -40,-21 -74,-85 -74,-85 0,0 61,-27 110,-10 48,18 44,82 44,82 0,0 5,2 11,3 0,-8 0,-15 -1,-23 -2,-68 -22,-102 -22,-102 0,0 -24,16 -58,13 -44,-3 -78,-53 -78,-53 0,0 41,-20 84,-15 42,5 62,32 62,32l11 -7c0,0 -38,-34 -33,-74 5,-40 42,-65 42,-65l0 0zm0 442c15,0 34,-19 57,-21 22,-1 31,7 50,6 19,0 37,-6 37,-6l7 25c0,0 -36,9 -58,4 -23,-4 -49,-3 -60,3 -11,7 -21,23 -33,23 -11,0 -21,-16 -33,-23 -11,-6 -37,-7 -59,-3 -22,5 -58,-4 -58,-4l7 -25c0,0 18,6 37,6 19,1 27,-7 50,-6 23,2 41,21 56,21l0 0zm151 -213c0,0 -34,-11 -62,3 -29,13 -47,55 -47,55 0,0 30,-1 64,-21 34,-20 45,-37 45,-37zm-301 0c0,0 33,-11 62,3 29,13 47,55 47,55 0,0 -30,-1 -64,-21 -34,-20 -45,-37 -45,-37zm150 -36c0,0 2,-7 6,-15 3,-9 8,-18 8,-18l-14 -11 -13 11c0,0 4,9 8,18 4,8 5,15 5,15zm0 -75c0,0 18,-22 18,-46 0,-24 -18,-41 -18,-41 0,0 -17,17 -17,41 0,24 17,46 17,46zm-131 15c0,0 23,-3 47,1 23,4 35,17 35,17 0,0 -20,9 -47,4 -26,-6 -35,-22 -35,-22l0 0zm263 0c0,0 -24,-3 -47,1 -24,4 -35,17 -35,17 0,0 20,9 46,4 27,-6 36,-22 36,-22l0 0z"/>
  <path class="fil3" d="M713 648l28 -45c0,0 17,9 19,16 2,11 -7,18 -14,16 6,4 7,12 1,19 -6,7 -23,6 -34,-6l0 0zm23 -22l8 -12c0,0 7,3 8,7 1,4 -2,9 -7,9 -6,-1 -9,-4 -9,-4l0 0zm-13 21l10 -16c0,0 10,5 11,10 1,5 -2,10 -9,11 -7,0 -12,-5 -12,-5l0 0z"/>
  <path class="fil3" d="M801 631c16,0 28,13 28,28 0,15 -12,28 -28,28 -15,0 -28,-13 -28,-28 0,-15 13,-28 28,-28zm0 10c10,0 19,8 19,18 0,10 -9,19 -19,19 -10,0 -18,-9 -18,-19 0,-10 8,-18 18,-18z"/>
  <path class="fil3" d="M878 642c12,0 22,8 26,18l-11 0c-3,-5 -9,-8 -15,-8 -10,0 -18,8 -18,18 0,10 8,18 18,18 8,0 14,-4 17,-11l-22 0 0 -7c11,0 22,0 33,0 0,15 -13,28 -28,28 -15,0 -28,-13 -28,-28 0,-15 13,-28 28,-28l0 0z"/>
  <path class="fil3" d="M952 635c16,0 28,12 28,27 0,16 -12,28 -28,28 -15,0 -27,-12 -27,-28 0,-15 12,-27 27,-27zm0 9c11,0 19,8 19,18 0,10 -8,19 -19,19 -10,0 -18,-9 -18,-19 0,-10 8,-18 18,-18z"/>
  <path class="fil3" d="M1015 670l-23 -47c0,0 20,-16 32,-9 13,9 7,24 0,28l21 11 -9 5 -22 -11 9 17 -8 6zm-14 -45l10 16c0,0 13,-4 13,-13 0,-9 -8,-10 -12,-8 -4,1 -11,5 -11,5l0 0z"/>
  <polygon class="fil3" points="615,538 619,545 668,517 663,510 "/>
  <polygon class="fil3" points="639,469 585,482 583,473 618,437 577,447 576,438 628,427 631,436 596,471 637,461 "/>
  <polygon class="fil3" points="591,204 587,211 633,242 638,235 "/>
  <polygon class="fil3" points="629,158 662,194 668,188 635,153 642,147 637,141 615,161 620,166 "/>
  <polygon class="fil3" points="1213,346 1212,337 1157,343 1158,351 "/>
  <polygon class="fil3" points="1163,541 1113,517 1117,508 1167,502 1129,484 1133,477 1181,501 1177,510 1129,515 1166,533 "/>
  <polygon class="fil3" points="753,61 767,108 775,105 761,59 772,56 770,49 740,57 742,64 "/>
  <polygon class="fil3" points="1096,114 1064,150 1070,156 1102,119 1110,127 1115,121 1092,100 1087,106 "/>
  <path class="fil3" d="M995 112l24 -49c0,0 26,6 27,21 2,17 -15,20 -22,18l3 24 -9 -4 -5 -26 -8 19 -10 -3 0 0zm28 -40l-7 18c0,0 12,8 19,3 7,-6 3,-13 -1,-16 -3,-2 -11,-5 -11,-5l0 0z"/>
  <polygon class="fil3" points="573,283 619,298 622,290 576,275 579,265 571,263 562,292 569,294 "/>
  <polygon class="fil3" points="1209,273 1158,295 1154,285 1183,245 1144,261 1141,253 1192,234 1196,242 1167,281 1205,266 "/>
  <path class="fil3" d="M667 108l8 -6 26 34c2,1 6,2 11,-2 6,-4 5,-8 4,-9l-24 -34 6 -5 26 37c1,1 4,10 -7,18 -11,8 -21,3 -22,2l-28 -35 0 0z"/>
  <path class="fil3" d="M571 345l0 8c0,0 -6,1 -6,9 -1,8 14,6 15,1 1,-5 7,-18 20,-18 13,0 21,16 15,25 -6,9 -18,9 -18,9l0 -8c0,0 11,0 11,-9 0,-9 -13,-12 -17,-5 -5,7 -4,19 -20,19 -16,0 -23,-27 0,-31l0 0z"/>
  <path class="fil3" d="M858 87l0 -56c12,0 34,-2 34,14 0,17 -7,19 -25,20l0 22 -9 0zm9 -49c0,7 0,13 0,20 8,0 18,1 18,-11 0,-8 -5,-9 -18,-9z"/>
  <polygon class="fil3" points="929,92 941,37 971,45 968,52 948,47 945,63 964,66 962,75 943,70 939,86 959,90 956,98 "/>
  <path class="fil3" d="M1093 183l59 -18 7 7 -32 52 -6 -6 10 -16 -14 -17 -18 5 -6 -7 0 0zm31 -1l24 -7 -13 20 -11 -13z"/>
  <path class="fil3" d="M1155 389l53 31 0 9 -60 11 0 -8 19 -3 3 -22 -16 -10 1 -8 0 0zm22 22l21 12 -23 5 2 -17 0 0z"/>
  <path class="fil2" d="M887 3c200,0 363,162 363,362 0,200 -163,363 -363,363 -200,0 -363,-163 -363,-363 0,-200 163,-362 363,-362zm0 5c197,0 357,160 357,357 0,198 -160,358 -357,358 -197,0 -357,-160 -357,-358 0,-197 160,-357 357,-357z"/>
  <path class="fil4" d="M44 1055c0,6 -3,7 -7,7l-30 0c-4,-1 -7,-1 -7,-7l0 -205c0,-4 1,-6 7,-6l30 0c5,0 7,1 7,6l0 205z"/>
  <path class="fil4" d="M93 856c0,-6 1,-8 6,-10 7,-2 34,-5 55,-5 20,0 91,0 91,65 0,48 -41,67 -90,67 -6,0 -10,0 -18,0l0 82c0,6 -2,7 -7,7l-30 0c-6,-1 -7,-2 -7,-7l0 -199zm44 92l0 0c4,1 8,1 13,1 22,0 51,-5 51,-42 0,-40 -35,-42 -49,-42 -7,0 -11,1 -15,2l0 81z"/>
  <path class="fil4" d="M274 856c0,-6 1,-8 6,-10 8,-3 33,-5 51,-5 24,0 47,3 64,12 17,10 24,25 24,42 0,28 -22,42 -34,48 -2,1 -5,1 -7,2 2,1 5,1 7,2 33,8 46,32 46,56 0,26 -15,43 -36,52 -14,6 -33,9 -64,9 -24,0 -45,-3 -50,-4 -6,-2 -7,-3 -7,-12l0 -192zm42 81l0 0c9,1 15,1 23,0 35,-4 37,-29 37,-36 0,-36 -35,-36 -42,-36 -7,0 -11,1 -18,2l0 70zm0 100l0 0c5,1 13,2 21,2 30,0 50,-12 50,-38 0,-43 -44,-43 -57,-43 -6,0 -9,0 -14,1l0 78z"/>
  <path class="fil4" d="M690 997c0,13 0,26 -9,39 -13,22 -36,30 -65,30 -47,0 -63,-23 -67,-31 -8,-14 -9,-30 -9,-42l0 -144c0,-5 1,-5 6,-5l20 0c5,0 6,0 6,5l0 138c0,15 0,57 47,57 15,0 31,-6 39,-19 7,-10 7,-19 7,-31l0 -145c0,-4 1,-5 5,-5 6,0 16,0 17,0 2,0 3,1 3,5l0 148z"/>
  <path class="fil4" d="M856 1056c0,2 0,5 -4,6l-17 0c-6,0 -7,-1 -7,-6l0 -104c0,-15 0,-38 -38,-38 -34,0 -34,20 -34,28l0 114c0,5 -3,6 -7,6l-16 0c-4,0 -6,-1 -6,-6l0 -124c0,-12 2,-18 13,-23 21,-11 51,-11 55,-11 61,0 61,33 61,51l0 107z"/>
  <path class="fil4" d="M908 874c-11,0 -17,-7 -17,-16 0,-9 7,-16 17,-16 9,0 17,6 17,15 0,9 -6,17 -17,17zm14 182l0 0c0,5 -1,6 -6,6l-17 0c-5,0 -5,-1 -5,-6l0 -148c0,-4 0,-6 5,-6l17 0c5,0 6,1 6,6l0 148z"/>
  <path class="fil4" d="M1016 1024l41 -118c1,-3 2,-4 4,-4l16 0c2,0 4,0 4,3 0,1 0,1 -1,5l-56 147c-2,4 -2,5 -6,5l-13 0c-2,-1 -3,-1 -4,-5l-58 -147c-1,-2 -2,-3 -2,-4 0,-4 4,-4 5,-4l19 0c5,0 6,0 7,5l44 117z"/>
  <path class="fil4" d="M1116 977c2,43 25,63 49,63 19,0 34,-10 44,-27 5,-7 6,-9 10,-9 2,0 6,1 6,7 0,8 -14,54 -64,54 -19,0 -45,-7 -59,-35 -9,-16 -11,-33 -11,-48 0,-22 5,-38 11,-50 4,-6 20,-34 60,-34 50,0 61,42 61,55 0,9 -6,9 -9,10l-98 14zm76 -27l0 0c-2,-19 -16,-34 -34,-34 -26,0 -39,19 -42,46l76 -12z"/>
  <path class="fil4" d="M1282 1057c0,4 -2,5 -6,5l-16 0c-4,0 -6,-1 -6,-5l0 -130c0,-10 1,-14 8,-18 10,-6 30,-11 51,-11 15,0 33,4 33,18 0,7 -5,13 -13,13 -6,0 -8,-2 -14,-8 -4,-4 -8,-8 -17,-8 -19,0 -20,14 -20,22l0 122z"/>
  <path class="fil4" d="M1423 972c16,8 39,18 39,47 0,13 -6,26 -15,34 -14,12 -31,12 -39,12 -43,0 -55,-25 -55,-34 0,-9 6,-14 13,-14 7,0 11,6 13,8 1,2 2,4 4,7 4,7 11,16 27,16 17,0 25,-12 25,-24 0,-18 -17,-26 -31,-32 -26,-12 -48,-23 -48,-51 0,-22 16,-43 51,-43 36,0 50,21 50,31 0,8 -6,12 -12,12 -8,0 -11,-5 -14,-10 -4,-6 -9,-17 -25,-17 -17,0 -24,13 -24,22 0,18 16,25 27,29l14 7z"/>
  <path class="fil4" d="M1508 874c-11,0 -18,-7 -18,-16 0,-9 8,-16 18,-16 9,0 16,6 17,15 0,9 -7,17 -17,17zm14 182l0 0c0,5 -2,6 -7,6l-17 0c-5,0 -5,-1 -5,-6l0 -148c0,-4 0,-6 6,-6l16 0c5,0 7,1 7,6l0 148z"/>
  <path class="fil4" d="M1593 915l0 101c0,13 0,16 4,22 3,6 9,11 19,11 1,0 7,-1 8,-1 6,0 6,5 6,7 0,8 -17,10 -24,10 -16,0 -27,-6 -34,-14 -7,-10 -8,-20 -8,-30l0 -106 -17 0c-4,0 -5,0 -5,-4 0,-8 0,-9 5,-9l17 0 0 -19c0,-5 1,-7 5,-10l15 -13c3,-3 4,-4 5,-4 3,0 4,5 4,8l0 38 28 0c3,0 5,0 5,4 0,9 0,9 -5,9l-28 0z"/>
  <path class="fil4" d="M1707 1084c-9,23 -23,52 -57,52 -4,0 -22,0 -22,-15 0,-7 5,-13 13,-13 3,0 15,3 18,3 13,0 23,-11 35,-49l-62 -151c-2,-4 -2,-4 -2,-5 0,-4 4,-4 6,-4l19 0c5,0 5,0 7,5l45 119 42 -119c1,-4 2,-5 5,-5l16 0c2,0 4,0 4,3 0,1 0,2 -2,6l-65 173z"/>
  <path class="fil5" d="M432 1110c0,-1 0,-2 0,-2 0,-1 1,-1 2,-2 1,0 4,-1 9,-1 4,0 9,0 12,0 5,0 10,0 15,1 4,1 8,2 12,4 3,2 6,5 7,8 2,3 3,7 3,10 0,6 -2,10 -5,14 -3,3 -6,6 -11,8 0,1 -1,1 -3,2 0,0 1,0 2,0 1,0 1,0 1,0 8,2 13,5 17,10 3,4 5,10 5,16 0,7 -1,12 -5,16 -3,4 -7,6 -12,8 -4,2 -9,3 -13,3 -4,1 -9,1 -13,1 -5,0 -9,0 -13,-1 -4,0 -7,-1 -8,-1 -1,0 -2,-1 -2,-1 0,-1 0,-2 0,-4l0 -89zm13 39l0 0c1,0 2,0 3,0 1,0 2,0 2,0 3,0 5,0 7,0 4,0 8,-1 11,-3 2,-1 5,-3 6,-4 1,-2 2,-4 3,-6 0,-2 1,-4 1,-5 0,-4 -1,-8 -3,-10 -2,-3 -4,-5 -6,-6 -3,-1 -5,-2 -7,-2 -2,0 -5,0 -7,0 -3,0 -6,0 -10,0l0 36zm0 48l0 0 0 0c5,0 9,0 12,0 8,0 15,-1 19,-4 5,-3 8,-8 8,-15 0,-3 -1,-6 -2,-8 -1,-3 -2,-5 -3,-6 -3,-3 -7,-5 -11,-6 -4,-1 -8,-2 -14,-2 -1,0 -4,0 -7,0l-2 1 0 40z"/>
  <path class="fil5" d="M571 1182c-1,5 -3,9 -6,13 -3,3 -6,6 -10,8 -4,2 -9,4 -14,4 -5,0 -9,-2 -13,-4 -4,-2 -8,-5 -11,-8 -2,-4 -4,-8 -6,-12 -1,-5 -2,-10 -2,-15 0,-4 1,-9 2,-14 2,-4 4,-9 7,-12 2,-4 6,-7 10,-9 4,-2 8,-3 13,-3 6,0 10,1 14,4 4,2 8,5 10,9 3,3 5,8 6,12 2,4 2,9 2,13 0,5 0,10 -2,14zm-17 -36l0 0c-4,-5 -8,-8 -14,-8 -5,0 -10,3 -13,8 -3,5 -5,12 -5,21 0,9 2,17 6,22 4,6 9,9 14,9 5,0 10,-3 13,-8 3,-6 5,-13 5,-23 0,-9 -2,-16 -6,-21z"/>
  <path class="fil5" d="M632 1141l0 0c1,2 2,4 3,6 1,2 1,5 1,9 0,4 0,8 -2,11 -1,3 -3,5 -6,7 -2,2 -5,3 -8,4 -3,1 -6,2 -9,2 -2,0 -5,-1 -8,-1l-1 0c-3,3 -5,6 -5,9 0,2 1,3 3,4 2,0 6,1 11,1l15 1c3,0 5,0 7,1 3,0 5,1 7,2 3,1 5,3 6,5 2,2 3,5 3,9 0,2 -1,5 -2,8 -2,3 -4,6 -8,9 -3,3 -7,6 -12,7 -6,2 -12,3 -19,3 -5,0 -10,0 -13,-1 -5,-2 -8,-4 -11,-6 -2,-3 -4,-6 -4,-9 0,-4 2,-7 4,-10 3,-4 7,-7 11,-10l0 0c-3,0 -6,-1 -8,-3 -2,-1 -3,-3 -3,-6 0,-1 1,-3 2,-4 1,-2 2,-3 3,-5 1,-1 2,-3 3,-4 2,-1 3,-2 5,-3l0 -1c-2,-1 -4,-2 -5,-3 -2,-2 -3,-4 -5,-7 -2,-3 -2,-7 -2,-12 0,-7 2,-13 7,-17 4,-5 10,-7 18,-7 2,0 4,0 6,1 1,0 3,0 5,1 2,1 3,1 4,2 1,0 3,0 4,0 1,0 2,0 3,0 1,0 4,-1 7,-1 3,-1 4,-1 4,-1 1,0 1,1 2,2 0,1 0,2 0,2 0,1 0,2 -1,2l-12 3zm-31 63l0 0c-3,2 -5,5 -6,7 -2,1 -2,4 -2,6 0,4 2,7 6,9 4,2 8,3 14,3 3,0 6,0 8,-1 3,-1 6,-2 8,-3 3,-1 5,-3 6,-5 2,-2 2,-4 2,-6 0,-2 0,-3 -1,-5 -1,-1 -2,-2 -4,-3 -1,0 -3,-1 -4,-1 -2,0 -3,0 -5,0l-4 -1c-3,0 -6,0 -10,0 -3,0 -6,0 -8,0l0 0zm21 -60l0 0c-2,-2 -3,-3 -4,-4 0,0 0,0 0,0 -2,-2 -5,-3 -8,-3 -4,0 -7,1 -10,4 -3,2 -4,6 -4,12 0,5 2,10 5,14 3,3 7,5 10,5 4,0 7,-1 10,-4 2,-2 4,-6 4,-11 0,-2 -1,-4 -1,-5 -1,-4 -1,-6 -2,-8z"/>
  <path class="fil5" d="M712 1182c-1,5 -3,9 -6,13 -3,3 -6,6 -10,8 -4,2 -9,4 -14,4 -5,0 -9,-2 -13,-4 -4,-2 -8,-5 -11,-8 -2,-4 -5,-8 -6,-12 -1,-5 -2,-10 -2,-15 0,-4 1,-9 2,-14 2,-4 4,-9 7,-12 2,-4 6,-7 10,-9 4,-2 8,-3 13,-3 5,0 10,1 14,4 4,2 8,5 10,9 3,3 5,8 6,12 2,4 2,9 2,13 0,5 0,10 -2,14zm-17 -36l0 0c-4,-5 -9,-8 -14,-8 -5,0 -10,3 -13,8 -3,5 -5,12 -5,21 0,9 2,17 6,22 4,6 9,9 14,9 5,0 9,-3 13,-8 3,-6 5,-13 5,-23 0,-9 -3,-16 -6,-21z"/>
  <path class="fil5" d="M740 1202c0,1 0,2 -1,2 0,1 -1,1 -2,1l-7 0c-1,0 -2,0 -2,-1 -1,0 -1,-1 -1,-2l0 -58c0,-3 1,-5 1,-6 0,-1 1,-2 3,-3 2,-1 5,-2 10,-3 4,-1 8,-2 12,-2 4,0 8,1 11,2 2,1 4,3 4,6 0,2 -1,3 -2,5 -1,1 -2,1 -4,1 -1,0 -2,0 -3,0 0,-1 -2,-2 -3,-3 -1,-2 -2,-3 -3,-3 -1,-1 -3,-1 -5,-1 -1,0 -3,0 -4,1 -1,1 -2,1 -3,2 0,1 -1,2 -1,3 0,1 0,3 0,4l0 0 0 55z"/>
  <path class="fil5" d="M824 1202c0,1 0,2 0,2 -1,1 -2,1 -3,1l-8 0c-1,0 -2,0 -2,-1 -1,0 -1,-1 -1,-2l0 -94c0,-1 0,-2 1,-2 0,0 1,-1 2,-1l8 0c1,0 2,1 2,1 1,0 1,1 1,2l0 94z"/>
  <path class="fil5" d="M898 1202c0,1 0,1 0,2 0,0 -1,1 -1,1l-8 0c-1,0 -2,0 -3,-1 0,0 0,-1 0,-2l0 -47c0,-3 0,-5 -1,-6 0,-2 0,-4 -1,-6 -1,-1 -3,-3 -5,-4 -3,-1 -6,-2 -10,-2 -3,0 -6,1 -8,2 -2,1 -4,2 -5,3 -1,2 -1,3 -2,4 0,1 0,3 0,4l0 52c0,1 0,2 -1,2 0,1 -1,1 -2,1l-7 0c-1,0 -1,0 -2,-1 0,0 0,-1 0,-2l0 -57c0,-2 0,-5 1,-6 0,-1 2,-3 4,-4 2,-1 5,-2 7,-3 3,0 5,-1 8,-1 2,0 4,-1 5,-1 2,0 3,0 4,0 7,0 12,1 16,2 3,2 6,4 8,6 1,3 2,5 3,7 0,3 0,5 0,8l0 49z"/>
  <path class="fil5" d="M972 1190c0,2 0,3 0,4 0,2 -1,3 -2,4 -1,1 -2,3 -4,4 -3,1 -5,2 -7,3 -3,0 -5,1 -8,1 -2,0 -5,1 -7,1 -10,0 -18,-4 -24,-10 -6,-6 -9,-15 -9,-26 0,-5 1,-10 2,-15 2,-5 4,-9 7,-13 3,-4 6,-7 10,-9 4,-3 9,-4 14,-4 4,0 6,1 9,1 2,1 4,2 7,4l0 -35c0,-1 0,-2 0,-2 0,-1 1,-1 2,-1l8 0c1,0 1,0 2,1 0,0 0,1 0,2l0 90zm-12 -47l0 0c-2,-2 -4,-3 -6,-4 -2,-1 -5,-2 -8,-2 -3,0 -6,1 -9,3 -2,1 -5,3 -7,6 -2,3 -3,6 -5,10 -1,3 -1,7 -1,11 0,10 2,17 6,23 5,5 10,8 17,8 3,0 5,-1 7,-1 2,-1 3,-2 4,-3 1,-1 1,-2 1,-3 1,-2 1,-3 1,-4l0 0 0 -44z"/>
  <path class="fil5" d="M1047 1182c-2,5 -4,9 -6,13 -3,3 -7,6 -11,8 -4,2 -8,4 -13,4 -5,0 -10,-2 -14,-4 -4,-2 -7,-5 -10,-8 -3,-4 -5,-8 -6,-12 -2,-5 -2,-10 -2,-15 0,-4 0,-9 2,-14 1,-4 3,-9 6,-12 3,-4 6,-7 10,-9 4,-2 9,-3 14,-3 5,0 10,1 14,4 4,2 7,5 10,9 3,3 5,8 6,12 1,4 2,9 2,13 0,5 -1,10 -2,14zm-18 -36l0 0c-3,-5 -8,-8 -13,-8 -6,0 -10,3 -13,8 -4,5 -5,12 -5,21 0,9 2,17 6,22 4,6 8,9 14,9 5,0 9,-3 13,-8 3,-6 5,-13 5,-23 -1,-9 -3,-16 -7,-21z"/>
  <path class="fil5" d="M1119 1202c0,1 0,1 -1,2 0,0 0,1 -1,1l-8 0c-1,0 -2,0 -2,-1 -1,0 -1,-1 -1,-2l0 -47c0,-3 0,-5 0,-6 -1,-2 -1,-4 -2,-6 -1,-1 -3,-3 -5,-4 -2,-1 -6,-2 -9,-2 -4,0 -7,1 -9,2 -2,1 -4,2 -5,3 0,2 -1,3 -1,4 0,1 -1,3 -1,4l0 52c0,1 0,2 0,2 -1,1 -1,1 -3,1l-6 0c-2,0 -2,0 -3,-1 0,0 0,-1 0,-2l0 -57c0,-2 0,-5 1,-6 1,-1 2,-3 4,-4 3,-1 5,-2 8,-3 2,0 5,-1 7,-1 2,0 4,-1 6,-1 1,0 3,0 4,0 6,0 11,1 15,2 4,2 6,4 8,6 2,3 3,5 3,7 0,3 1,5 1,8l0 49z"/>
  <path class="fil5" d="M1142 1166c1,9 3,17 7,22 4,4 9,7 15,7 4,0 8,-1 11,-3 3,-2 6,-5 8,-9 1,-2 2,-3 3,-4 0,0 1,-1 2,-1 0,0 1,1 1,1 1,1 1,2 1,3 0,1 0,3 -1,6 -1,2 -3,5 -5,8 -2,3 -5,5 -9,7 -3,3 -8,4 -13,4 -2,0 -4,-1 -7,-1 -2,-1 -5,-2 -7,-3 -2,-1 -5,-3 -7,-5 -2,-2 -4,-5 -5,-8 -2,-3 -3,-6 -4,-10 0,-4 -1,-8 -1,-12 0,-4 1,-9 2,-12 1,-4 2,-7 3,-10 1,-2 2,-3 3,-4 1,-2 3,-4 5,-6 2,-1 4,-3 8,-4 3,-1 6,-2 10,-2 5,0 10,1 13,3 4,2 7,4 9,7 2,3 3,6 4,8 1,3 1,5 1,7 0,2 0,3 -1,4 0,0 -1,1 -3,1l0 0 -43 6zm34 -12l0 0c-1,-5 -2,-8 -5,-11 -3,-3 -6,-5 -10,-5 -6,0 -10,2 -13,6 -3,4 -5,9 -6,15l34 -5z"/>
  <path class="fil5" d="M1231 1164l0 0c2,1 4,2 6,3 2,1 4,3 5,4 2,2 3,4 4,6 1,3 2,5 2,8 0,3 -1,6 -2,9 -1,3 -3,5 -5,7 -2,2 -5,4 -8,4 -3,1 -6,2 -9,2 -4,0 -8,-1 -11,-2 -4,-1 -6,-3 -8,-5 -2,-1 -3,-3 -4,-5 -1,-2 -1,-3 -1,-4 0,-2 0,-4 1,-5 2,-1 3,-1 4,-1 2,0 3,0 4,1 1,0 1,1 2,2 1,1 1,2 2,3 1,3 3,4 5,6 1,1 4,2 7,2 3,0 6,-2 8,-4 2,-2 3,-4 3,-7 0,-4 -1,-7 -4,-9 -2,-2 -5,-4 -9,-6l-1 0c-4,-2 -7,-4 -9,-5 -2,-1 -4,-2 -6,-4 -2,-2 -3,-4 -4,-6 -1,-2 -2,-5 -2,-8 0,-6 2,-10 6,-14 4,-4 9,-6 16,-6 4,0 8,1 10,2 3,1 5,2 7,3 2,2 3,4 4,5 1,2 1,3 1,4 0,2 0,3 -1,4 -1,1 -2,2 -4,2 -1,0 -3,-1 -3,-1 -1,-1 -2,-2 -3,-4l0 0c-1,-3 -3,-4 -4,-6 -2,-1 -4,-2 -7,-2 -3,0 -6,1 -8,4 -1,2 -2,4 -2,7 0,3 1,6 3,8 2,2 5,3 8,5l7 3z"/>
  <path class="fil5" d="M1273 1117c-1,2 -3,2 -5,2 -3,0 -4,0 -6,-2 -1,-1 -2,-3 -2,-5 0,-2 1,-4 2,-5 2,-2 4,-2 6,-2 2,0 4,0 5,1 2,2 2,3 2,6 0,2 0,3 -2,5zm1 85l0 0c0,1 0,2 -1,2 0,1 -1,1 -2,1l-7 0c-1,0 -2,0 -2,-1 0,0 0,-1 0,-2l0 -67c0,-1 0,-2 0,-3 0,0 1,0 2,0l7 0c1,0 2,0 2,0 1,1 1,1 1,3l0 67z"/>
  <path class="fil5" d="M1337 1190c0,4 -1,6 -1,8 -1,2 -3,3 -5,5 -3,1 -6,2 -9,3 -4,0 -8,1 -11,1 -2,0 -4,-1 -7,-1 -2,0 -4,-1 -7,-2 -3,-1 -6,-3 -8,-6 -2,-3 -3,-6 -3,-11 0,-4 1,-7 3,-10 2,-2 4,-5 8,-7 3,-2 7,-3 11,-5 4,-1 10,-3 17,-5l0 -7c0,-2 0,-4 -1,-6 0,-1 0,-3 -1,-4 0,-2 -1,-3 -3,-4 -1,-1 -3,-1 -6,-1 -2,0 -3,0 -5,1 -1,0 -2,1 -3,2 -1,1 -2,2 -2,3 -1,1 -1,2 -2,3l0 0c-1,2 -1,3 -2,4 -1,1 -2,2 -4,2 -1,0 -3,-1 -4,-2 -1,-1 -2,-2 -2,-4 0,-2 1,-4 2,-6 1,-2 3,-4 5,-6 5,-3 12,-5 19,-5 5,0 9,1 11,2 3,2 5,4 7,6 1,2 2,5 2,7 1,2 1,5 1,8l0 0 0 37zm-12 -23l0 0c-5,1 -9,2 -12,3 -3,1 -5,3 -7,4 -5,3 -7,7 -7,12 0,0 0,1 0,3 1,1 1,2 2,4 1,2 3,3 5,4 2,1 4,2 8,2 2,0 4,0 6,-1 1,-1 2,-2 3,-3 1,-1 1,-2 1,-3 1,-1 1,-2 1,-3l0 -22z"/>
  <polygon class="fil5" points="373,1161 186,1161 186,1155 373,1155 "/>
  <polygon class="fil5" points="1588,1161 1408,1161 1408,1155 1588,1155 "/>
 </g>
</svg>
