<?xml version="1.0" encoding="UTF-8"?>
<svg version="1.1" xmlns="http://www.w3.org/2000/svg" width="1254" height="1254" viewBox="150 150 950 950">

<path d="M0 0 C3.6875 0.3125 3.6875 0.3125 5.6875 1.92578125 C8.01113514 4.69871302 9.68683508 7.63535881 11.375 10.8125 C20.7101803 27.8561842 31.16126381 44.32481366 41.4375 60.8125 C42.24791748 62.11477539 42.24791748 62.11477539 43.07470703 63.44335938 C53.21456426 79.63610578 63.78671878 95.56280701 74.28930664 111.52148438 C75.51256187 113.38133991 76.73456873 115.2420171 77.95532227 117.10351562 C85.11934289 128.02704434 92.38038806 138.86330191 99.92320251 149.52978516 C103.60209568 154.73288037 107.17715538 159.99433043 110.6875 165.3125 C116.59945142 174.2405919 122.72548409 183.00911502 128.89208984 191.76269531 C139.00894373 206.13044374 149.02220184 220.56562323 158.94140625 235.0703125 C159.77406006 236.28787231 159.77406006 236.28787231 160.62353516 237.5300293 C161.74451553 239.16936993 162.86528568 240.80885433 163.98583984 242.44848633 C167.09768755 246.99918031 170.22660285 251.53702614 173.375 256.0625 C176.93253739 261.19106668 180.42754017 266.35779262 183.86547852 271.56713867 C186.04802685 274.87277489 188.26264864 278.14756618 190.54296875 281.38671875 C191.00646729 282.05461426 191.46996582 282.72250977 191.94750977 283.41064453 C192.83398404 284.68636837 193.73107569 285.95480314 194.64038086 287.21435547 C196.54218996 289.97525633 197.66418826 292.18583953 198.2734375 295.49609375 C197.6875 298.3125 197.6875 298.3125 195.78125 300.50390625 C191.72645838 302.87432105 187.7080414 304.04938666 183.1875 305.25 C181.80014648 305.63285156 181.80014648 305.63285156 180.38476562 306.0234375 C173.15725076 307.99057425 165.88036117 309.72553759 158.58398438 311.41552734 C149.6381594 313.50834263 140.82515646 316.01690613 132.01708984 318.62353516 C129.86373989 319.26037791 127.70765152 319.88692999 125.55078125 320.51171875 C124.37902344 320.85847656 123.20726562 321.20523437 122 321.5625 C121.00613281 321.85640625 120.01226563 322.1503125 118.98828125 322.453125 C116.53534167 323.1879991 116.53534167 323.1879991 114.6875 325.3125 C112.95304661 325.7897657 111.19852851 326.19522667 109.4375 326.5625 C100.65668375 328.6556624 92.66877844 332.43756068 84.53515625 336.2578125 C83.85106689 336.57911133 83.16697754 336.90041016 82.4621582 337.23144531 C81.13408412 337.85856917 79.80830108 338.49057293 78.48510742 339.12792969 C73.90182954 341.3125 73.90182954 341.3125 71.6875 341.3125 C71.6875 341.9725 71.6875 342.6325 71.6875 343.3125 C70.90890625 343.65539062 70.1303125 343.99828125 69.328125 344.3515625 C48.22674912 354.2215609 30.05359995 369.40504783 13.95703125 386.0703125 C11.96154022 388.04176147 9.92779391 389.64085837 7.6875 391.3125 C6.65314444 392.95806566 5.65986487 394.6295608 4.6875 396.3125 C3.15223651 398.41338688 1.57789936 400.47996551 -0.0078125 402.54296875 C-1.36979524 404.28472535 -1.36979524 404.28472535 -2.3125 406.3125 C-2.9725 406.3125 -3.6325 406.3125 -4.3125 406.3125 C-4.3125 407.3025 -4.3125 408.2925 -4.3125 409.3125 C-4.9725 409.3125 -5.6325 409.3125 -6.3125 409.3125 C-6.39886719 409.83328125 -6.48523438 410.3540625 -6.57421875 410.890625 C-7.5931773 414.23324035 -9.35474953 417.07525219 -11.125 420.0625 C-16.81890022 429.87926621 -21.18967132 439.75805857 -25.3125 450.3125 C-25.9725 450.3125 -26.6325 450.3125 -27.3125 450.3125 C-27.42722656 451.60542969 -27.54195312 452.89835937 -27.66015625 454.23046875 C-28.21211511 459.19227818 -29.39094758 463.83156539 -30.75 468.625 C-32.72000291 475.80652402 -34.32392969 482.92035484 -35.3125 490.3125 C-41.72674802 489.81909631 -41.72674802 489.81909631 -44.625 487.3125 C-45.181875 486.6525 -45.73875 485.9925 -46.3125 485.3125 C-46.9725 484.9825 -47.6325 484.6525 -48.3125 484.3125 C-48.3125 483.3225 -48.3125 482.3325 -48.3125 481.3125 C-49.055 481.02375 -49.7975 480.735 -50.5625 480.4375 C-52.87989797 479.48947356 -55.09167115 478.46404089 -57.3125 477.3125 C-57.3125 476.6525 -57.3125 475.9925 -57.3125 475.3125 C-58.3025 475.3125 -59.2925 475.3125 -60.3125 475.3125 C-60.3125 474.6525 -60.3125 473.9925 -60.3125 473.3125 C-61.3025 473.3125 -62.2925 473.3125 -63.3125 473.3125 C-63.3125 472.6525 -63.3125 471.9925 -63.3125 471.3125 C-63.88524658 471.19173096 -64.45799316 471.07096191 -65.0480957 470.9465332 C-67.44047445 470.27666715 -69.35968485 469.34893688 -71.54296875 468.16796875 C-72.34669922 467.73806641 -73.15042969 467.30816406 -73.97851562 466.86523438 C-74.81060547 466.41470703 -75.64269531 465.96417969 -76.5 465.5 C-84.92879719 460.94804846 -93.06802371 456.90744071 -102.3125 454.3125 C-103.83876778 453.70089089 -105.35913644 453.07445895 -106.875 452.4375 C-117.32843181 448.18145991 -128.27429068 445.6861485 -139.375 443.8125 C-140.58583252 443.60455811 -141.79666504 443.39661621 -143.04418945 443.18237305 C-155.22241056 441.17830386 -167.46821741 439.86167167 -179.74829102 438.65625 C-190.22961742 437.62003098 -200.30427595 436.1653008 -210.375 433 C-211.06182861 432.7841626 -211.74865723 432.5683252 -212.45629883 432.34594727 C-222.38763509 429.10744255 -230.86313116 424.52005424 -236.3125 415.3125 C-244.81667187 397.15001865 -233.10900033 370.2798458 -226.76348877 352.71424866 C-222.22562783 340.47920068 -216.36888426 328.85519118 -210.3125 317.3125 C-209.85488281 316.43577637 -209.39726562 315.55905273 -208.92578125 314.65576172 C-206.18843178 309.46006187 -203.30903074 304.36275614 -200.3125 299.3125 C-199.85649414 298.54196289 -199.40048828 297.77142578 -198.93066406 296.97753906 C-190.03172705 282.05433844 -180.26732235 267.72192694 -170.43603516 253.40527344 C-168.64471496 250.79634676 -166.85793963 248.18443596 -165.07421875 245.5703125 C-160.16439922 238.38588244 -155.17327446 231.26160112 -150.14501953 224.15966797 C-139.40023002 208.97136371 -128.82299458 193.66369636 -118.3125 178.3125 C-117.81186035 177.58144043 -117.3112207 176.85038086 -116.79541016 176.09716797 C-114.06110131 172.10371537 -111.32855053 168.10906958 -108.59765625 164.11328125 C-106.52785867 161.08586136 -104.45275017 158.0622452 -102.37109375 155.04296875 C-72.43194305 111.56109207 -43.46021772 67.29134116 -16.7097168 21.77270508 C-4.14232754 0.39078562 -4.14232754 0.39078562 0 0 Z " fill="#32ADF7" transform="translate(626.3125,169.6875)"/>
<path d="M0 0 C3.80205399 8.51874844 6.650016 17.05785393 9.0625 26.0625 C9.23397552 26.69584259 9.40545105 27.32918518 9.5821228 27.98171997 C16.52989206 53.66190372 20.61702355 78.84299959 20.5 105.5 C20.49890228 106.53883331 20.49780457 107.57766663 20.49667358 108.64797974 C20.44361889 126.23299868 19.10897777 142.85994111 15 160 C14.80245117 160.84353027 14.60490234 161.68706055 14.40136719 162.55615234 C13.20709322 167.47866497 11.73067048 172.24122325 10 177 C9.72317383 177.76892578 9.44634766 178.53785156 9.16113281 179.33007812 C1.87966066 199.21440099 -7.46054634 216.68943974 -21 233 C-21.43812012 233.54124512 -21.87624023 234.08249023 -22.32763672 234.64013672 C-31.19659472 245.535481 -43.33049332 254.87547644 -56.6875 259.4375 C-60.74078854 260.82837931 -64.71323769 262.28467666 -68.671875 263.92578125 C-74.51919451 266.28495424 -80.5060152 268.01503728 -86.5625 269.75 C-95.9476345 272.48857472 -105.30631629 275.29257763 -114.625 278.25 C-115.6363501 278.56678711 -116.6477002 278.88357422 -117.68969727 279.20996094 C-122.93431503 280.88619829 -127.93531489 282.78109485 -132.93505859 285.08447266 C-136.05065734 286.46582703 -139.2649575 287.49640645 -142.5 288.5625 C-167.17715357 297.02850717 -191.61755979 308.74614207 -214.20703125 321.76953125 C-217.28092714 323.1237651 -217.95006074 322.96389013 -221 322 C-219.63981106 314.58428066 -217.15707163 308.17058061 -214.0625 301.3125 C-213.32942627 299.67317505 -213.32942627 299.67317505 -212.58154297 298.00073242 C-194.3633723 257.61877574 -170.57959635 220.92763366 -142.45605469 186.77636719 C-141.16038703 185.19567002 -139.87987367 183.60257855 -138.6015625 182.0078125 C-133.28853293 175.3905013 -127.63389526 169.16111872 -121.83227539 162.97583008 C-120.43306472 161.46699437 -119.04652394 159.94639948 -117.66577148 158.4206543 C-110.85919655 150.91238347 -103.82485867 143.6695068 -96.64672852 136.51635742 C-94.80041754 134.67545292 -92.95957727 132.82919728 -91.11914062 130.98242188 C-85.24777354 125.10765092 -79.34780311 119.36438062 -73 114 C-71.18352575 112.37944375 -69.37035212 110.75516931 -67.5625 109.125 C-66.29599609 107.98417969 -66.29599609 107.98417969 -65.00390625 106.8203125 C-63.98726703 105.89681567 -62.97118528 104.97118528 -62 104 C-88.32814859 118.29327254 -113.04993506 134.73246697 -136 154 C-136.98226562 154.79664063 -137.96453125 155.59328125 -138.9765625 156.4140625 C-147.07534639 163.0707324 -154.53128751 170.34290687 -161.9375 177.75 C-162.43390991 178.24550354 -162.93031982 178.74100708 -163.44177246 179.25152588 C-172.24349284 188.05506705 -180.30656206 197.21854338 -188 207 C-188.73863281 207.92039062 -189.47726562 208.84078125 -190.23828125 209.7890625 C-205.82249823 229.53077108 -219.26199887 251.25239234 -230 274 C-231.90625 273.7578125 -231.90625 273.7578125 -234 273 C-234.90625 271.2421875 -234.90625 271.2421875 -235.5 268.875 C-235.73847656 267.95589844 -235.97695313 267.03679687 -236.22265625 266.08984375 C-236.47917969 265.07019531 -236.73570312 264.05054688 -237 263 C-237.46212891 261.45505859 -237.46212891 261.45505859 -237.93359375 259.87890625 C-250.54848565 216.63486048 -248.08597622 171.2538033 -227.15820312 131.10742188 C-218.74537217 115.79975812 -207.91168422 102.66970049 -196 90 C-195.41734375 89.36320313 -194.8346875 88.72640625 -194.234375 88.0703125 C-165.36931636 57.60163949 -121.67380373 40.76791701 -82.0390625 30.09130859 C-59.52965613 23.99501103 -21.4091361 -1.1572506 0 0 Z " fill="#489A24" transform="translate(872,485)"/>
<path d="M0 0 C0.33 0.33 0.66 0.66 1 1 C0.96082026 3.08556789 0.84100086 5.16971974 0.6875 7.25 C0.60886719 8.38953125 0.53023437 9.5290625 0.44921875 10.703125 C-0.57932902 21.67609856 -2.81457226 32.4752612 -5.0625 43.25 C-5.33419081 44.57938491 -5.60567611 45.90881184 -5.87695312 47.23828125 C-6.13541016 48.48480469 -6.39386719 49.73132813 -6.66015625 51.015625 C-7.01025757 52.70606934 -7.01025757 52.70606934 -7.36743164 54.43066406 C-8 57 -8 57 -9 58 C-11.43692718 58.32623442 -13.85855474 58.59613527 -16.3046875 58.83203125 C-17.84478048 58.98979029 -19.38481753 59.14809608 -20.92480469 59.30688477 C-21.73381226 59.38915314 -22.54281982 59.47142151 -23.37634277 59.55618286 C-36.46317145 60.89865531 -49.27621559 62.47099981 -62.08056641 65.56494141 C-65.17501341 66.2663284 -68.30722564 66.73646492 -71.4375 67.25 C-129.70103229 78.13821478 -185.57859632 106.69819934 -234.5 139.1875 C-235.44995346 139.81739838 -235.44995346 139.81739838 -236.4190979 140.46002197 C-244.82512427 146.0467283 -252.99361372 151.84871526 -261 158 C-261.67208496 158.51425537 -262.34416992 159.02851074 -263.03662109 159.55834961 C-264.67753841 160.82160279 -266.31005006 162.09445854 -267.9375 163.375 C-268.51540283 163.8292334 -269.09330566 164.2834668 -269.6887207 164.75146484 C-274.31597121 168.41174268 -278.83716097 172.18714836 -283.32055664 176.02172852 C-286.62521725 178.84790442 -289.9775508 181.59755167 -293.375 184.3125 C-299.28192049 189.11885889 -304.79106034 194.31728568 -310.32421875 199.54296875 C-313.42517472 202.47142755 -316.57851938 205.33538526 -319.75 208.1875 C-325.24613323 213.21253609 -330.53862145 218.43029815 -335.8125 223.6875 C-336.61333008 224.48373779 -337.41416016 225.27997559 -338.23925781 226.1003418 C-342.47393536 230.34605175 -346.54966694 234.66993251 -350.46069336 239.21557617 C-352.54477933 241.63152929 -354.71008001 243.96899233 -356.875 246.3125 C-361.31316047 251.18381427 -365.50974153 256.20354646 -369.64550781 261.33203125 C-371.83470058 264.0278793 -374.05242637 266.70007507 -376.265625 269.3762207 C-381.18764319 275.32904497 -386.09368786 281.28060438 -390.765625 287.43359375 C-392 289 -392 289 -394 291 C-396.80859375 290.6953125 -396.80859375 290.6953125 -400 290 C-400.81597656 289.83242187 -401.63195312 289.66484375 -402.47265625 289.4921875 C-425.96142435 283.89456252 -447.98769519 274.29789348 -469.375 263.25 C-470.40270508 262.71938965 -471.43041016 262.1887793 -472.48925781 261.64208984 C-478.58420567 258.43438067 -484.35836251 254.9517949 -490 251 C-487.96249764 241.5729906 -477.63521255 233.33631392 -471.13793945 226.47924805 C-468.3111059 223.49485195 -465.54627371 220.48749565 -462.87890625 217.359375 C-458.11580395 211.87822708 -452.94444795 206.7952144 -447.80297852 201.67260742 C-446.066064 199.941053 -444.33456111 198.20421641 -442.60351562 196.46679688 C-437.45198916 191.31217712 -432.29509641 186.23268076 -426.74633789 181.5012207 C-423.80419864 178.97204214 -421.00926351 176.28667212 -418.1875 173.625 C-413.19934863 168.95765366 -408.10401119 164.51055143 -402.76953125 160.23828125 C-400.23233341 158.18776734 -397.74639088 156.09186714 -395.26928711 153.9699707 C-388.94585292 148.55726126 -382.47882811 143.36840628 -375.82128906 138.37060547 C-374.58023851 137.4366567 -373.34273776 136.49797652 -372.10839844 135.55517578 C-348.28553242 117.36964809 -322.96683088 100.94456331 -297 86 C-296.19643066 85.5373877 -295.39286133 85.07477539 -294.56494141 84.59814453 C-289.41791537 81.65401498 -284.22379272 78.80528877 -279 76 C-278.16952148 75.55124512 -277.33904297 75.10249023 -276.48339844 74.64013672 C-254.32433837 62.71053577 -231.66279109 52.02942087 -208.25 42.8125 C-207.55449036 42.53810089 -206.85898071 42.26370178 -206.14239502 41.98098755 C-199.27297858 39.28235385 -192.42330157 36.73540276 -185.31689453 34.71826172 C-182.80362413 33.93912141 -180.40882988 32.99112813 -177.9765625 31.98828125 C-173.18896928 30.02344703 -168.36297416 28.55015636 -163.375 27.1875 C-161.51138192 26.67048342 -159.64811314 26.15220648 -157.78515625 25.6328125 C-156.82883301 25.36629883 -155.87250977 25.09978516 -154.88720703 24.82519531 C-152.0773341 24.02210293 -149.28640242 23.1730923 -146.49609375 22.3046875 C-132.82271171 18.08900489 -119.07211158 14.98196776 -105.04614258 12.22094727 C-104.32810959 12.07922592 -103.6100766 11.93750458 -102.87028503 11.79148865 C-100.90341239 11.40526664 -98.93538089 11.02495982 -96.96728516 10.64501953 C-94.08849374 10.14717059 -94.08849374 10.14717059 -92 9 C-90.29150202 8.67552988 -88.57486811 8.39341194 -86.85546875 8.1328125 C-85.79682617 7.97087402 -84.73818359 7.80893555 -83.64746094 7.64208984 C-82.50567383 7.4714502 -81.36388672 7.30081055 -80.1875 7.125 C-79.01348633 6.94791504 -77.83947266 6.77083008 -76.62988281 6.58837891 C-74.22601729 6.2270497 -71.82188136 5.86751498 -69.41748047 5.50976562 C-66.40352949 5.06019214 -63.39110198 4.60177015 -60.37890625 4.140625 C-40.56203986 1.14936472 -20.07391433 -1.55459834 0 0 Z " fill="#106C29" transform="translate(947,752)"/>
<path d="M0 0 C-0.38746692 6.71609328 -2.43375393 11.95440258 -5.15625 18.06640625 C-6.09557099 20.21901685 -6.98671164 22.38834261 -7.875 24.5625 C-21.83244807 58.43464223 -40.68975268 89.5599903 -65 117 C-65.79921875 117.91007813 -66.5984375 118.82015625 -67.421875 119.7578125 C-80.51078409 134.35072667 -94.20939017 148.34548625 -110 160 C-110.98097656 160.78761719 -111.96195313 161.57523438 -112.97265625 162.38671875 C-136.85119049 181.52035715 -164.66565034 195.7259114 -193 207 C-193.98758301 207.4007373 -194.97516602 207.80147461 -195.99267578 208.21435547 C-203.91294564 211.36112532 -211.88573717 213.8342135 -220.125 216 C-220.76629852 216.16953186 -221.40759705 216.33906372 -222.06832886 216.51373291 C-231.33859964 218.95217472 -240.64045386 221.0952344 -250.0625 222.875 C-251.05717285 223.06578125 -252.0518457 223.2565625 -253.07666016 223.453125 C-269.93529064 226.46135646 -286.8487097 227.31865297 -303.94360352 227.20581055 C-306.85636946 227.18722001 -309.76882069 227.1853042 -312.68164062 227.18554688 C-314.56510689 227.18064064 -316.44857104 227.17481626 -318.33203125 227.16796875 C-319.18730911 227.16685593 -320.04258698 227.1657431 -320.92378235 227.16459656 C-326.03155847 227.124491 -330.94322625 226.72894035 -336 226 C-335.54716221 221.13652214 -333.13741214 218.1971632 -330.125 214.5625 C-329.1142114 213.31280074 -328.10380508 212.0627922 -327.09375 210.8125 C-326.57683594 210.17828125 -326.05992187 209.5440625 -325.52734375 208.890625 C-324.08906333 207.11024719 -322.67926518 205.31209005 -321.28125 203.5 C-312.16710787 191.68667608 -302.41521205 180.45492794 -292.22094727 169.56225586 C-289.76447058 166.93497762 -287.3796154 164.27250097 -285.05078125 161.53125 C-279.83286737 155.54176311 -274.14447275 149.99575505 -268.52124023 144.39086914 C-266.56704376 142.4420313 -264.61824853 140.48790728 -262.66992188 138.53320312 C-256.6154238 132.47546743 -250.55011939 126.52656766 -244 121 C-242.39231627 119.54554483 -240.78760285 118.08779105 -239.1875 116.625 C-234.92525284 112.78315658 -230.55756431 109.10881247 -226.09375 105.50390625 C-223.83018164 103.67190206 -221.58242755 101.82673143 -219.34375 99.96484375 C-209.88964687 92.13370681 -200.14802898 84.90436675 -190 78 C-189.08653809 77.37689941 -188.17307617 76.75379883 -187.23193359 76.11181641 C-136.75015187 41.78353387 -82.22713465 14.14152025 -22 2 C-20.17855469 1.63068359 -20.17855469 1.63068359 -18.3203125 1.25390625 C-12.16635691 0.11863454 -6.25275484 -0.24900351 0 0 Z " fill="#075426" transform="translate(933,825)"/>
<path d="M0 0 C3.78335703 1.26111901 4.40206288 2.67627743 6.625 5.9375 C26.7069434 34.27984059 55.36412937 47.71587339 88.81942749 53.65264893 C96.04083159 54.80297182 103.34751998 55.38459966 110.625 56.0625 C130.61424358 57.95869019 149.75049246 60.53060643 168.8125 67.1875 C169.94252441 67.58114746 171.07254883 67.97479492 172.23681641 68.38037109 C181.24245414 71.58995721 189.65815663 75.34966203 198 80 C199.05960938 80.57363281 200.11921875 81.14726563 201.2109375 81.73828125 C211.7204053 87.61439757 221.0089281 94.85961232 229.83203125 103.0234375 C232.09093245 105.13553034 232.09093245 105.13553034 235.0625 107.375 C238.72732109 110.64994651 241.66808429 114.29826825 244.72265625 118.140625 C246.09511463 119.8638489 247.49201164 121.56854678 248.93359375 123.234375 C263.08917385 139.83260198 272.71351445 160.35697832 279.4375 180.9375 C279.78006836 181.97994873 280.12263672 183.02239746 280.47558594 184.09643555 C282.45359729 190.40600948 283.64967595 196.39323596 284 203 C279.38915155 202.10826166 276.60130688 199.35947094 273.125 196.375 C258.2699378 183.98622896 241.94541602 173.30789298 225 164 C224.15421387 163.53529297 223.30842773 163.07058594 222.43701172 162.59179688 C208.50963159 155.0073079 194.26406006 148.37439478 179.68017578 142.15600586 C177.21924609 141.0945646 174.78133898 139.99259127 172.34375 138.87890625 C167.94762648 136.9159814 163.45929083 135.39613799 158.875 133.9375 C157.35059173 133.44963759 155.82713602 132.95878789 154.3046875 132.46484375 C153.64452637 132.254646 152.98436523 132.04444824 152.30419922 131.82788086 C150.42943917 131.15429415 148.5907439 130.38098295 146.7668457 129.57983398 C142.74090615 127.83387916 138.61896356 126.53839439 134.42578125 125.2578125 C132.77145375 124.7435881 131.11715788 124.22926191 129.46289062 123.71484375 C126.89456923 122.92102116 124.32569559 122.12905533 121.75610352 121.33935547 C112.8555309 118.5984762 104.07268288 115.85697862 95.53808594 112.09204102 C92.70936453 110.87495071 89.84019273 109.83925813 86.9375 108.8125 C78.58668845 105.65054223 70.82373522 101.32654046 62.99194336 97.06567383 C61.01190444 96.00636878 59.01308098 94.994848 57 94 C75.48052207 108.42689257 95.11040627 119.41716617 116 130 C116.83499023 130.42506836 117.66998047 130.85013672 118.53027344 131.28808594 C126.74269185 135.46560161 134.95397715 139.62809873 143.5390625 142.99609375 C152.42717031 146.53419727 160.7561753 150.95153413 169.16748047 155.47998047 C172.25246537 157.1354809 175.34654081 158.77320641 178.44140625 160.41015625 C210.93557347 177.65798743 240.18282228 198.23527561 267.0625 223.375 C268.13419434 224.37394287 268.13419434 224.37394287 269.22753906 225.39306641 C273.10970934 229.05874166 276.86729466 232.66428695 280 237 C280 238.32 280 239.64 280 241 C275.04627813 240.43358607 271.46500137 238.15685191 267.25 235.6875 C247.00734082 224.19236693 225.81526568 215.06486519 204 207 C203.35215546 206.75868347 202.70431091 206.51736694 202.03683472 206.26873779 C192.0695004 202.57398719 182.06532873 199.49630058 171.75268555 196.921875 C169.56407668 196.37539369 167.37859472 195.81761572 165.19335938 195.2578125 C146.6069522 190.52574336 127.88468782 186.76885813 109.03100586 183.27368164 C106.237505 182.75468988 103.44489891 182.23108361 100.65234375 181.70703125 C99.79527328 181.54975052 98.93820282 181.39246979 98.05516052 181.23042297 C92.11306101 180.11306101 92.11306101 180.11306101 91 179 C89.46338666 178.72061576 87.92008982 178.47788935 86.375 178.25 C59.59034183 173.4806028 33.31175202 158.0589161 17.47265625 135.77734375 C-7.37844831 98.79641405 -11.18586279 52.07134809 -2.8671875 9.16357422 C-1.20891933 1.20891933 -1.20891933 1.20891933 0 0 Z " fill="#56A422" transform="translate(336,585)"/>
<path d="M0 0 C5.33467294 0.5492799 9.27577221 2.41403112 13.9375 4.875 C21.93825787 9.03143558 30.08245946 12.44787248 38.5234375 15.62109375 C41.0297476 16.61516956 43.42292503 17.65879255 45.859375 18.796875 C52.99518194 21.99291881 60.46176766 24.35207251 67.875 26.8125 C69.07299728 27.21075989 69.07299728 27.21075989 70.29519653 27.61706543 C91.45503434 34.6237145 112.8525342 39.81389877 134.63717651 44.44497681 C177.95542152 53.66468034 220.1202565 66.20349107 260.0625 85.5 C260.66610352 85.79127777 261.26970703 86.08255554 261.89160156 86.38265991 C268.50438961 89.59216202 274.85278571 92.96706627 281 97 C280.62387146 99.42422575 280.34432505 100.68579215 278.50390625 102.36523438 C277.86324219 102.77064453 277.22257812 103.17605469 276.5625 103.59375 C275.48005005 104.29395264 275.48005005 104.29395264 274.37573242 105.00830078 C273.59174072 105.50056152 272.80774902 105.99282227 272 106.5 C270.34898878 107.56834989 268.69927982 108.63871457 267.05078125 109.7109375 C266.20854004 110.25588867 265.36629883 110.80083984 264.49853516 111.36230469 C251.95261968 119.58567785 239.90082593 128.57428884 228.26171875 138.03125 C227.63418701 138.53648193 227.00665527 139.04171387 226.36010742 139.56225586 C225.15187088 140.53674248 223.94979638 141.51893728 222.75512695 142.51000977 C217.05208071 147.10177911 217.05208071 147.10177911 213 147 C210.6971848 145.74252147 208.77793597 144.48774022 206.6875 142.9375 C153.97087216 106.09753678 86.57635223 83.60724407 22.30688477 79.58129883 C16.27922761 79.18615174 16.27922761 79.18615174 13 77 C12.49284091 74.90374241 12.00105172 72.80226746 11.59765625 70.68359375 C10.94420128 67.74945279 10.00819861 65.01864074 9 62.1875 C7.26687121 57.14858852 6.2220149 52.25700562 5.4921875 46.984375 C5.0286318 43.87644797 5.0286318 43.87644797 4.046875 40.41015625 C2.6346944 34.91111198 2.03614156 29.31732274 1.375 23.6875 C1.17390625 22.09131836 1.17390625 22.09131836 0.96875 20.46289062 C0.14896307 13.60763157 -0.17020527 6.90190975 0 0 Z " fill="#4E9C21" transform="translate(306,746)"/>




<path d="M0 0 C6.90809988 -0.15007539 13.58918882 0.2198298 20.4375 1.125 C21.90328491 1.31860107 21.90328491 1.31860107 23.39868164 1.51611328 C40.36247075 3.90650787 57.46973185 7.55169962 73.66601562 13.19384766 C75.41301964 13.79725846 77.16523477 14.38561866 78.91992188 14.96630859 C106.36179343 24.0517931 131.80700723 36.0716942 156 52 C157.05912598 52.69512695 157.05912598 52.69512695 158.13964844 53.40429688 C165.54928542 58.34901197 165.54928542 58.34901197 168 61 C168.40536881 63.99459714 168.41932297 65.43359998 166.59814453 67.89355469 C165.94958496 68.48040039 165.30102539 69.06724609 164.6328125 69.671875 C163.9109375 70.33703125 163.1890625 71.0021875 162.4453125 71.6875 C161.67960938 72.368125 160.91390625 73.04875 160.125 73.75 C159.39796875 74.41515625 158.6709375 75.0803125 157.921875 75.765625 C154.86583387 78.55359235 151.78318089 81.30992742 148.67944336 84.04467773 C141.90675365 90.05080422 135.48146221 96.36527114 129.09448242 102.77514648 C127.3082533 104.5667595 125.51670653 106.35293055 123.72460938 108.13867188 C117.93727894 113.9225418 112.26909414 119.73257139 107 126 C103.5 130 103.5 130 100 134 C95.68985653 133.52793667 93.22823515 130.74415439 90.25 127.875 C89.16871363 126.85597986 88.0866835 125.83774834 87.00390625 124.8203125 C86.48328613 124.32821289 85.96266602 123.83611328 85.42626953 123.32910156 C83.72645124 121.7450874 81.96679492 120.24382562 80.1875 118.75 C70.74167847 110.52936871 61.82594567 101.48108148 54.0859375 91.640625 C51.90291005 88.87709213 49.61347024 86.22834902 47.3125 83.5625 C30.64114494 63.56726107 18.08394791 40.93861519 6 18 C5.51378174 17.07864258 5.02756348 16.15728516 4.52661133 15.20800781 C4.07568115 14.33370117 3.62475098 13.45939453 3.16015625 12.55859375 C2.7619165 11.7895874 2.36367676 11.02058105 1.95336914 10.22827148 C0.49258927 6.81404925 0.20507629 3.69137316 0 0 Z " fill="#0A5C28" transform="translate(330,848)"/>
<path d="M0 0 C8.69741859 4.9184407 13.87515831 12.05120341 17.35546875 21.33203125 C19.23277579 28.67059512 19.82921152 37.31782999 16.35546875 44.20703125 C13.29972477 48.99523406 8.96719832 53.08448287 3.5234375 54.96484375 C-6.09253285 56.59349458 -14.57857601 56.00861016 -22.64453125 50.33203125 C-29.91972429 44.87200613 -34.4933412 36.84359479 -36.34375 27.984375 C-37.33030908 18.91439636 -36.21235298 12.18405075 -30.45703125 5.01953125 C-21.84833309 -3.98455597 -11.27570829 -5.07317241 0 0 Z " fill="#F9FCFD" transform="translate(699.64453125,331.66796875)"/>
<path d="M0 0 C-0.33 0.99 -0.66 1.98 -1 3 C-2.83908039 3.51085566 -4.68487817 4.00426011 -6.55078125 4.40625 C-12.47973062 5.84357106 -18.2441782 8.13937438 -23.75 10.75 C-27.3757948 12.14453646 -30.14824516 12.23582172 -34 12 C-34 12.66 -34 13.32 -34 14 C-50 22 -50 22 -52.09912109 23.04711914 C-79.6886865 36.87733668 -105.20572733 56.83791285 -122 83 C-122.69222656 84.04285156 -123.38445313 85.08570313 -124.09765625 86.16015625 C-137.73453551 107.3643211 -145.69561403 131.34571249 -148.5078125 156.33984375 C-149 159 -149 159 -151 161 C-152.01599264 120.56349288 -128.65062522 83.3465741 -102 55 C-101.41734375 54.36320313 -100.8346875 53.72640625 -100.234375 53.0703125 C-78.61935165 30.25445452 -32.41776207 0 0 0 Z " fill="#83C430" transform="translate(778,520)"/>
<path d="M0 0 C3.62760073 1.64890942 6.08652985 3.47518657 8 7 C8.60225269 10.95766056 8.16187311 12.69937852 6.25 16.25 C3.27531632 19.8857245 1.7014101 20.74108977 -2.875 21.4375 C-7.2682371 20.82244681 -8.84565969 19.08098355 -12 16 C-13.75158547 12.49682906 -13.6837198 8.81305274 -13 5 C-9.08512267 0.32124417 -6.01475752 -0.87487382 0 0 Z " fill="#F3FAFD" transform="translate(737,392)"/>
<path d="M0 0 C0.66 0.33 1.32 0.66 2 1 C1.40361667 2.27450447 0.79752584 3.54446877 0.1875 4.8125 C-0.14894531 5.52019531 -0.48539063 6.22789062 -0.83203125 6.95703125 C-2.01787126 9.03125976 -3.31703314 10.32575317 -5 12 C-5.81400828 13.37110366 -6.58239339 14.76993905 -7.3125 16.1875 C-9.45373725 20.18360842 -11.90805628 23.66273929 -14.765625 27.17578125 C-16.10018365 28.90304002 -16.10018365 28.90304002 -16.3984375 30.85546875 C-17.31389491 34.11901496 -19.31514886 36.33352603 -21.375 39 C-22.16648437 40.03125 -22.95796875 41.0625 -23.7734375 42.125 C-25.0585226 43.78433796 -26.34613712 45.44173689 -27.640625 47.09375 C-29.10664225 49.14954431 -30.22799245 51.25217312 -31.375 53.5 C-33.40056101 57.23712927 -35.39009068 59.62777388 -39 62 C-37.29392125 56.85074414 -34.28372509 52.60995094 -31.3125 48.125 C-30.13669695 46.33334764 -28.96091662 44.54168037 -27.78515625 42.75 C-27.16785645 41.81285156 -26.55055664 40.87570312 -25.91455078 39.91015625 C-22.67848434 34.99126923 -19.46531945 30.05746283 -16.25 25.125 C-15.6199707 24.15957275 -14.98994141 23.19414551 -14.34082031 22.19946289 C-9.52737601 14.82074335 -4.74646722 7.42198262 0 0 Z " fill="#1781ED" transform="translate(580,240)"/>
<path d="M0 0 C1 3 1 3 0.27490234 5.03027344 C-0.11745605 5.79887695 -0.50981445 6.56748047 -0.9140625 7.359375 C-1.55770752 8.65053223 -1.55770752 8.65053223 -2.21435547 9.96777344 C-2.67986816 10.8859082 -3.14538086 11.80404297 -3.625 12.75 C-12.13867636 30.10832521 -17.3464248 48.12995917 -19.5078125 67.33984375 C-20 70 -20 70 -22 72 C-22.62064964 47.29814429 -12.9888061 20.8061431 0 0 Z " fill="#89C63A" transform="translate(649,609)"/>
<path d="M0 0 C4.46797338 1.39878802 8.63822079 3.13630772 12.875 5.125 C14.60363281 5.93324219 14.60363281 5.93324219 16.3671875 6.7578125 C17.23601562 7.16773438 18.10484375 7.57765625 19 8 C19 8.66 19 9.32 19 10 C21.97 10.99 24.94 11.98 28 13 C28 13.66 28 14.32 28 15 C28.99 15 29.98 15 31 15 C31 15.66 31 16.32 31 17 C32.65 17.33 34.3 17.66 36 18 C36 18.66 36 19.32 36 20 C36.763125 20.103125 37.52625 20.20625 38.3125 20.3125 C41.24342658 21.06227192 42.01517162 21.83473267 44 24 C44.99 24.33 45.98 24.66 47 25 C47 25.66 47 26.32 47 27 C49.64 27.33 52.28 27.66 55 28 C55.495 26.515 55.495 26.515 56 25 C56.66 25.66 57.32 26.32 58 27 C56.3125 29.0625 56.3125 29.0625 54 31 C48.77275866 30.8840538 44.70397122 27.46575781 40.5 24.6875 C33.40519094 20.09874489 26.22418855 15.73225703 18.875 11.5625 C17.59786133 10.83776489 17.59786133 10.83776489 16.29492188 10.09838867 C10.87857196 7.03815097 5.44200933 4.01432585 0 1 C0 0.67 0 0.34 0 0 Z " fill="#3F8E2E" transform="translate(469,862)"/>
<path d="M0 0 C3.80971855 1.26990618 4.53642363 2.79877708 6.8125 6.0625 C7.50988281 7.04992187 8.20726562 8.03734375 8.92578125 9.0546875 C9.61027344 10.02664063 10.29476563 10.99859375 11 12 C12.15982028 13.56758868 13.32553861 15.13085046 14.5 16.6875 C15.22703125 17.65236328 15.22703125 17.65236328 15.96875 18.63671875 C16.47921875 19.31154297 16.47921875 19.31154297 17 20 C16.34 20.33 15.68 20.66 15 21 C13.56147125 19.25084555 12.12421802 17.50064205 10.6875 15.75 C9.88699219 14.77546875 9.08648437 13.8009375 8.26171875 12.796875 C6.45557742 10.5633738 4.70180085 8.31312737 3 6 C0.90250005 8.35968744 0.03094296 9.54616994 -0.1875 12.75 C-0.125625 13.4925 -0.06375 14.235 0 15 C-0.66 15 -1.32 15 -2 15 C-1.79375 16.11375 -1.5875 17.2275 -1.375 18.375 C-1.25125 19.57125 -1.1275 20.7675 -1 22 C-1.66 22.66 -2.32 23.32 -3 24 C-3.46072107 26.02713674 -3.46072107 26.02713674 -3.6328125 28.3515625 C-3.75849609 29.62773438 -3.75849609 29.62773438 -3.88671875 30.9296875 C-3.96535156 31.81914063 -4.04398437 32.70859375 -4.125 33.625 C-4.21136719 34.5221875 -4.29773438 35.419375 -4.38671875 36.34375 C-4.5990924 38.5618748 -4.80317085 40.78045069 -5 43 C-5.33 43 -5.66 43 -6 43 C-6.33564351 33.04448828 -5.44912093 23.97402124 -3.5625 14.1875 C-3.33240234 12.92357422 -3.10230469 11.65964844 -2.86523438 10.35742188 C-1.15570747 1.15570747 -1.15570747 1.15570747 0 0 Z " fill="#83C537" transform="translate(336,585)"/>
<path d="M0 0 C0.66 0 1.32 0 2 0 C3.56561059 20.22247007 -2.85770182 41.30581085 -10 60 C-10.66 59.67 -11.32 59.34 -12 59 C-10.22535211 52.53521127 -10.22535211 52.53521127 -9 49.625 C-7.82750041 46.54718857 -7.18052626 43.48356584 -6.50390625 40.265625 C-6.06278969 38.28231024 -5.50897904 36.32475203 -4.9375 34.375 C-3.97855577 30.92280077 -3.48655194 27.54487843 -3 24 C-2.67 23.34 -2.34 22.68 -2 22 C-1.44688171 18.74274784 -1 15.61936426 -1 12.3125 C-1 10 -1 10 -0.5 8.0625 C0.15759989 5.34990044 0.06316992 2.77947642 0 0 Z " fill="#1A762A" transform="translate(889,610)"/>
<path d="M0 0 C0.66 0 1.32 0 2 0 C0.70976469 3.50647683 -0.8135998 6.43034271 -2.9375 9.5 C-4.54677625 11.8499311 -6.08623285 14.15090749 -7.5 16.625 C-8.83747811 18.74267367 -10.20794584 20.39677735 -11.875 22.25 C-14.23094022 24.90843131 -15.9230608 27.53791491 -17.5625 30.6875 C-19.50386858 34.38114282 -21.45321492 36.66925552 -25 39 C-24.36431066 35.49113567 -22.95625868 33.17196675 -20.9375 30.25390625 C-20.30932373 29.33947754 -19.68114746 28.42504883 -19.03393555 27.48291016 C-18.36273682 26.5191748 -17.69153809 25.55543945 -17 24.5625 C-16.32171143 23.58071777 -15.64342285 22.59893555 -14.94458008 21.58740234 C-13.58968872 19.62694861 -12.23270945 17.66793604 -10.87353516 15.71044922 C-9.25661085 13.37123972 -7.65872723 11.02137349 -6.07421875 8.66015625 C-5.66236328 8.05034912 -5.25050781 7.44054199 -4.82617188 6.81225586 C-3.76056349 5.23326367 -2.69850916 3.6518746 -1.63671875 2.0703125 C-1.09660156 1.38710938 -0.55648437 0.70390625 0 0 Z " fill="#1C8FF1" transform="translate(539,303)"/>
<path d="M0 0 C4.24803676 1.51715598 5.58535036 4.34143993 8 8 C10.34791295 10.05442383 12.76248279 11.83309602 15.3125 13.625 C15.869375 14.07875 16.42625 14.5325 17 15 C17 15.66 17 16.32 17 17 C17.556875 17.103125 18.11375 17.20625 18.6875 17.3125 C21.4769101 18.14178408 23.6139064 19.34299056 26 21 C26 21.66 26 22.32 26 23 C26.59167969 23.18175781 27.18335938 23.36351562 27.79296875 23.55078125 C36.37393768 26.28045326 36.37393768 26.28045326 40 29 C40.495 30.485 40.495 30.485 41 32 C25.23248652 27.2198036 9.68687685 15.31579748 0 2 C0 1.34 0 0.68 0 0 Z " fill="#378A37" transform="translate(357,723)"/>
<path d="M0 0 C5.26910919 2.77461952 9.35467518 5.87270042 13.625 10 C14.71987067 11.04322583 15.81620171 12.08492136 16.9140625 13.125 C17.43685791 13.6214502 17.95965332 14.11790039 18.49829102 14.62939453 C19.81943832 15.83520188 21.21959947 16.9532085 22.62890625 18.0546875 C25.24310688 20.19945177 27.20563173 22.48274838 29.3125 25.125 C30.08078125 26.08535156 30.8490625 27.04570313 31.640625 28.03515625 C32.41921875 29.01355469 33.1978125 29.99195313 34 31 C35.16789063 32.42119141 35.16789063 32.42119141 36.359375 33.87109375 C37.08640625 34.75925781 37.8134375 35.64742187 38.5625 36.5625 C39.22378906 37.36816406 39.88507812 38.17382812 40.56640625 39.00390625 C42 41 42 41 42 43 C38.10439 41.70146333 38.05690423 40.52612153 36 37 C32.32306421 31.95107325 28.46301673 27.37524182 24 23 C23.18660156 22.175 22.37320313 21.35 21.53515625 20.5 C14.19517387 12.4070459 14.19517387 12.4070459 5 7 C2.3125 4.5625 2.3125 4.5625 0 2 C0 1.34 0 0.68 0 0 Z " fill="#78BE29" transform="translate(549,675)"/>
<path d="M0 0 C3.74709718 0.6050613 6.74804597 1.6813936 10.140625 3.37109375 C11.12160156 3.85868164 12.10257812 4.34626953 13.11328125 4.84863281 C14.66595703 5.63512207 14.66595703 5.63512207 16.25 6.4375 C17.31089844 6.97084961 18.37179687 7.50419922 19.46484375 8.05371094 C28.54036796 12.66536905 37.32772767 17.67409362 46 23 C44.37109375 23.703125 44.37109375 23.703125 42 24 C39.16015625 22.671875 39.16015625 22.671875 36.0625 20.75 C35.04285156 20.12609375 34.02320313 19.5021875 32.97265625 18.859375 C31.99167969 18.24578125 31.01070312 17.6321875 30 17 C26.72145814 14.98644467 23.61192292 13.34157137 20 12 C20 11.34 20 10.68 20 10 C17.03 9.505 17.03 9.505 14 9 C14 8.34 14 7.68 14 7 C12.205625 6.5978125 12.205625 6.5978125 10.375 6.1875 C6.62144624 5.25912994 3.39911194 3.86951157 0 2 C0 1.34 0 0.68 0 0 Z " fill="#4B9C2A" transform="translate(489,734)"/>
<path d="M0 0 C5.33136697 1.91887722 10.05806216 4.80538006 14.94140625 7.63476562 C19.20182963 10.07335082 23.4503394 12.15281404 28 14 C27.360625 14.103125 26.72125 14.20625 26.0625 14.3125 C25.381875 14.539375 24.70125 14.76625 24 15 C23.67 15.99 23.34 16.98 23 18 C6.86529292 7.07493188 6.86529292 7.07493188 0 1 C0 0.67 0 0.34 0 0 Z " fill="#F1F7ED" transform="translate(391,677)"/>
<path d="M0 0 C0.99 0.33 1.98 0.66 3 1 C2.2575 1.721875 1.515 2.44375 0.75 3.1875 C-1.95860519 5.84683316 -1.95860519 5.84683316 -3.875 8.4375 C-6.13133829 11.15837853 -8.55953426 13.26836188 -11.265625 15.5234375 C-13.64790763 17.55159704 -15.81842026 19.75945865 -18 22 C-19.33333333 23.33333333 -20.66666667 24.66666667 -22 26 C-22.99 25.67 -23.98 25.34 -25 25 C-16.75 16.75 -8.5 8.5 0 0 Z " fill="#1D7833" transform="translate(514,939)"/>
<path d="M0 0 C0.66 0.66 1.32 1.32 2 2 C1.9765625 4.6875 1.9765625 4.6875 1.625 8 C1.25227064 11.92865313 0.94548416 15.7433778 1.0625 19.6875 C1.17928838 27.48636856 -0.05725931 35.27289329 -1 43 C-1.33 43 -1.66 43 -2 43 C-2.25631351 28.51237165 -1.7646888 14.38536492 0 0 Z " fill="#6DB623" transform="translate(332,608)"/>
<path d="M0 0 C0.66 0.33 1.32 0.66 2 1 C0.77322572 1.94062842 -0.45655035 2.87734232 -1.6875 3.8125 C-2.37199219 4.33457031 -3.05648437 4.85664062 -3.76171875 5.39453125 C-8.33755875 8.67667826 -12.72379316 10.74105884 -18.0625 12.5625 C-22.73953732 14.13316015 -22.73953732 14.13316015 -27.23046875 16.14453125 C-29.81560073 17.39429704 -32.17732735 17.1283033 -35 17 C-33.20861416 14.71100698 -32.28972097 14.04828683 -29.375 13.5625 C-21.93767824 12.32294637 -15.20251517 8.1415098 -8.5 4.8125 C-7.42129639 4.27677368 -7.42129639 4.27677368 -6.32080078 3.73022461 C-2.9384816 2.19425118 -2.9384816 2.19425118 0 0 Z " fill="#1C7337" transform="translate(833,732)"/>
<path d="M0 0 C0.66 0.66 1.32 1.32 2 2 C-0.88340252 4.97066987 -3.78374606 7.92423077 -6.6875 10.875 C-7.91243164 12.13763672 -7.91243164 12.13763672 -9.16210938 13.42578125 C-10.35610352 14.63427734 -10.35610352 14.63427734 -11.57421875 15.8671875 C-12.30213623 16.61081543 -13.03005371 17.35444336 -13.7800293 18.12060547 C-16.10370562 20.08779565 -18.12823553 21.04200939 -21 22 C-16.61557474 16.74825074 -11.99157907 11.86777527 -7.125 7.0625 C-6.43664062 6.37865234 -5.74828125 5.69480469 -5.0390625 4.99023438 C-3.36166489 3.32448536 -1.68196209 1.6611378 0 0 Z " fill="#0B5D29" transform="translate(667,967)"/>
<path d="M0 0 C0.66 0 1.32 0 2 0 C1.47887312 3.85633892 0.73250914 5.3404462 -2 8 C-2.84958016 9.22509992 -3.66112221 10.47724952 -4.4375 11.75 C-4.86804688 12.45382813 -5.29859375 13.15765625 -5.7421875 13.8828125 C-6.87220315 15.78488854 -7.97503136 17.69838234 -9.0625 19.625 C-14.22077922 28.61038961 -14.22077922 28.61038961 -17 30 C-15.71821548 25.74475753 -14.10411742 22.19918162 -11.77734375 18.41796875 C-11.15666016 17.40412109 -10.53597656 16.39027344 -9.89648438 15.34570312 C-8.92678711 13.78239258 -8.92678711 13.78239258 -7.9375 12.1875 C-7.28716797 11.12595703 -6.63683594 10.06441406 -5.96679688 8.97070312 C-1.17152461 1.17152461 -1.17152461 1.17152461 0 0 Z " fill="#1372E7" transform="translate(614,185)"/>
<path d="M0 0 C7.39292203 -0.36697028 13.48953777 0.92164445 20.5625 3 C21.57119141 3.28617188 22.57988281 3.57234375 23.61914062 3.8671875 C26.082626 4.56770467 28.54251466 5.27877105 31 6 C31 6.33 31 6.66 31 7 C23.89275821 7.41003318 17.82375461 5.89596186 11 4 C9.93910156 3.71382812 8.87820313 3.42765625 7.78515625 3.1328125 C5.18754442 2.43075525 2.59278215 1.71965016 0 1 C0 0.67 0 0.34 0 0 Z " fill="#3F9038" transform="translate(481,774)"/>
<path d="M0 0 C7.09151764 2.62795533 13.58925506 5.73852474 20.0625 9.625 C20.70517822 10.00906006 21.34785645 10.39312012 22.01000977 10.78881836 C24.98243463 12.60892016 27.70136954 14.35615398 30 17 C29.01 17.33 28.02 17.66 27 18 C25.29870665 16.7111414 23.64253305 15.36295295 22 14 C14.73772276 9.15395706 6.96938425 5.5225178 -1 2 C-0.67 1.34 -0.34 0.68 0 0 Z " fill="#7DC12A" transform="translate(519,658)"/>
<path d="M0 0 C-2.63620068 2.91865075 -4.20904511 4.16613007 -8 5 C-9.36113459 5.4807078 -10.71552606 5.9809349 -12.0625 6.5 C-16.94046377 8.37253888 -20.71029026 9.09980584 -26 9 C-21.76696879 6.17797919 -17.17558355 4.62124209 -12.4375 2.8125 C-11.46619141 2.43158203 -10.49488281 2.05066406 -9.49414062 1.65820312 C-8.56666016 1.30306641 -7.63917969 0.94792969 -6.68359375 0.58203125 C-5.40826782 0.09053589 -5.40826782 0.09053589 -4.10717773 -0.41088867 C-2 -1 -2 -1 0 0 Z " fill="#7ABE41" transform="translate(847,497)"/>
<path d="M0 0 C-2.75724149 2.75724149 -5.97562908 3.36672157 -9.625 4.4375 C-14.07231933 5.7713003 -18.45312629 7.10233537 -22.75 8.875 C-26.07602233 10.02631542 -26.83423761 10.00478546 -30 9 C-26.06283522 7.51993998 -22.12521141 6.04110503 -18.1875 4.5625 C-17.06794922 4.14162109 -15.94839844 3.72074219 -14.79492188 3.28710938 C-13.72177734 2.88427734 -12.64863281 2.48144531 -11.54296875 2.06640625 C-10.55321045 1.69459229 -9.56345215 1.32277832 -8.54370117 0.93969727 C-3.15405627 -1.05135209 -3.15405627 -1.05135209 0 0 Z " fill="#247D32" transform="translate(764,760)"/>
<path d="M0 0 C0.66 0.33 1.32 0.66 2 1 C-0.45537753 3.14923518 -2.91479202 5.29379688 -5.375 7.4375 C-6.42300781 8.35499023 -6.42300781 8.35499023 -7.4921875 9.29101562 C-8.1625 9.87431641 -8.8328125 10.45761719 -9.5234375 11.05859375 C-10.450354 11.86768188 -10.450354 11.86768188 -11.39599609 12.69311523 C-13 14 -13 14 -15 15 C-15.66 14.34 -16.32 13.68 -17 13 C-17 12.01 -17 11.02 -17 10 C-15.28490234 9.04287109 -15.28490234 9.04287109 -13.53515625 8.06640625 C-12.04422197 7.23185813 -10.55333921 6.39721796 -9.0625 5.5625 C-8.30775391 5.14162109 -7.55300781 4.72074219 -6.77539062 4.28710938 C-6.05673828 3.88427734 -5.33808594 3.48144531 -4.59765625 3.06640625 C-3.93258057 2.69459229 -3.26750488 2.32277832 -2.58227539 1.93969727 C-1.01422168 1.09652286 -1.01422168 1.09652286 0 0 Z " fill="#EEF6E9" transform="translate(811,587)"/>
<path d="M0 0 C0.33 0 0.66 0 1 0 C1 3.3 1 6.6 1 10 C0.34 10 -0.32 10 -1 10 C-0.79375 11.11375 -0.5875 12.2275 -0.375 13.375 C-0.25125 14.57125 -0.1275 15.7675 0 17 C-0.66 17.66 -1.32 18.32 -2 19 C-2.46072107 21.02713674 -2.46072107 21.02713674 -2.6328125 23.3515625 C-2.75849609 24.62773438 -2.75849609 24.62773438 -2.88671875 25.9296875 C-2.96535156 26.81914063 -3.04398437 27.70859375 -3.125 28.625 C-3.21136719 29.5221875 -3.29773438 30.419375 -3.38671875 31.34375 C-3.5990924 33.5618748 -3.80317085 35.78045069 -4 38 C-4.33 38 -4.66 38 -5 38 C-5.56411783 28.95844479 -4.6305854 20.57859935 -3.0625 11.6875 C-2.88041992 10.65488037 -2.69833984 9.62226074 -2.51074219 8.55834961 C-1.14549311 1.14549311 -1.14549311 1.14549311 0 0 Z " fill="#8FC74A" transform="translate(335,590)"/>
<path d="M0 0 C4.06143328 4.36228019 9 11.82240131 9 18 C9.99 18.33 10.98 18.66 12 19 C13.38671875 20.84765625 13.38671875 20.84765625 14.6875 23.0625 C15.12449219 23.79597656 15.56148438 24.52945313 16.01171875 25.28515625 C16.50091797 26.13400391 16.50091797 26.13400391 17 27 C16.01 27 15.02 27 14 27 C8.40629019 20.9909157 0 8.38717655 0 0 Z " fill="#338D24" transform="translate(341,695)"/>
<path d="M0 0 C0 0.66 0 1.32 0 2 C-9.375 5.125 -9.375 5.125 -13 4 C-13 4.66 -13 5.32 -13 6 C-16.47325181 7.1577506 -19.36067448 7.06866652 -23 7 C-23.33 7.99 -23.66 8.98 -24 10 C-25.65 9.67 -27.3 9.34 -29 9 C-26.59628584 6.59628584 -24.91094767 6.21542362 -21.66015625 5.2734375 C-20.59732422 4.9640625 -19.53449219 4.6546875 -18.43945312 4.3359375 C-17.32505859 4.01882813 -16.21066406 3.70171875 -15.0625 3.375 C-13.39670898 2.88773438 -13.39670898 2.88773438 -11.69726562 2.390625 C-3.40541295 0 -3.40541295 0 0 0 Z " fill="#87C545" transform="translate(807,511)"/>
<path d="M0 0 C0.66 0.66 1.32 1.32 2 2 C-3.12991699 6.68788333 -8.25271689 11.08695618 -14 15 C-14.66 14.34 -15.32 13.68 -16 13 C-13.89746067 11.20639298 -11.79305667 9.41505881 -9.6875 7.625 C-8.79514648 6.86316406 -8.79514648 6.86316406 -7.88476562 6.0859375 C-7.01948242 5.35117187 -7.01948242 5.35117187 -6.13671875 4.6015625 C-5.60780029 4.15119629 -5.07888184 3.70083008 -4.53393555 3.23681641 C-3.08837533 2.07125727 -1.54505544 1.03003696 0 0 Z " fill="#1E7B31" transform="translate(558,901)"/>
<path d="M0 0 C5.75 0.75 5.75 0.75 8 3 C6.68 3.33 5.36 3.66 4 4 C3.34 9.28 2.68 14.56 2 20 C1.67 20 1.34 20 1 20 C0.11978631 13.28837062 -0.11381955 6.76594019 0 0 Z " fill="#75B431" transform="translate(306,746)"/>
<path d="M0 0 C0.33 0 0.66 0 1 0 C1.05807043 3.10408807 1.09361914 6.2080364 1.125 9.3125 C1.14175781 10.19357422 1.15851563 11.07464844 1.17578125 11.98242188 C1.18222656 12.82998047 1.18867187 13.67753906 1.1953125 14.55078125 C1.20578613 15.33106689 1.21625977 16.11135254 1.22705078 16.9152832 C1 19 1 19 -1 22 C-1.66 22 -2.32 22 -3 22 C-2.24984418 14.62346781 -1.16558465 7.32168224 0 0 Z " fill="#151616" transform="translate(1253,1043)"/>
<path d="M0 0 C0 0.66 0 1.32 0 2 C-6.35352676 4.03358813 -11.42706544 5.60671734 -18 4 C-15.07089056 2.04726038 -12.91867709 1.24603637 -9.5625 0.3125 C-8.61503906 0.04050781 -7.66757812 -0.23148438 -6.69140625 -0.51171875 C-4.01081763 -0.99803744 -2.53712417 -0.89369149 0 0 Z " fill="#28833C" transform="translate(823,770)"/>
<path d="M0 0 C0.66 0.33 1.32 0.66 2 1 C-0.90843066 3.96652777 -3.82810643 6.92173641 -6.75 9.875 C-7.575 10.71675781 -8.4 11.55851563 -9.25 12.42578125 C-10.04921875 13.23144531 -10.8484375 14.03710938 -11.671875 14.8671875 C-12.4050293 15.61081543 -13.13818359 16.35444336 -13.89355469 17.12060547 C-15.86744809 18.88173567 -17.58285657 19.96339896 -20 21 C-18.49280493 17.32310652 -16.36529009 15.3236862 -13.375 12.75 C-8.72347454 8.67315428 -4.3178844 4.42643457 0 0 Z " fill="#D4F1FD" transform="translate(653,542)"/>
<path d="M0 0 C6.6 0 13.2 0 20 0 C20 0.33 20 0.66 20 1 C17.25162151 1.53107314 14.50187625 2.05015881 11.75 2.5625 C10.97269531 2.71396484 10.19539062 2.86542969 9.39453125 3.02148438 C8.64042969 3.16005859 7.88632813 3.29863281 7.109375 3.44140625 C6.41811523 3.57232666 5.72685547 3.70324707 5.01464844 3.83813477 C2.78712058 4.01710362 1.12493038 3.65206197 -1 3 C-0.67 2.01 -0.34 1.02 0 0 Z " fill="#121111" transform="translate(191,0)"/>
<path d="M0 0 C-1 3 -1 3 -3.328125 4.203125 C-4.29234375 4.54859375 -5.2565625 4.8940625 -6.25 5.25 C-7.20390625 5.60578125 -8.1578125 5.9615625 -9.140625 6.328125 C-12.19014218 7.04467822 -14.01691636 6.84919899 -17 6 C-14.1485357 4.0990238 -11.70289524 3.03734101 -8.5 1.875 C-7.5409375 1.52179687 -6.581875 1.16859375 -5.59375 0.8046875 C-3 0 -3 0 0 0 Z " fill="#2B853E" transform="translate(771,784)"/>
<path d="M0 0 C3.6875 0.3125 3.6875 0.3125 6.125 2.3125 C6.8984375 3.3025 6.8984375 3.3025 7.6875 4.3125 C7.3575 5.3025 7.0275 6.2925 6.6875 7.3125 C5.1875 5.9375 5.1875 5.9375 3.6875 4.3125 C3.6875 3.6525 3.6875 2.9925 3.6875 2.3125 C0.3875 3.6325 -2.9125 4.9525 -6.3125 6.3125 C-3.93602941 0.37132353 -3.93602941 0.37132353 0 0 Z " fill="#1069E2" transform="translate(626.3125,169.6875)"/>
<path d="M0 0 C7.02765937 0.82678345 14.00998353 1.90248217 21 3 C21 3.33 21 3.66 21 4 C14.73 4 8.46 4 2 4 C2 3.34 2 2.68 2 2 C1.34 1.34 0.68 0.68 0 0 Z " fill="#171818" transform="translate(190,1250)"/>
<path d="M0 0 C4.53847198 1.34927545 8.31932246 3.19159348 12.375 5.625 C13.43460938 6.25664063 14.49421875 6.88828125 15.5859375 7.5390625 C16.38257813 8.02117188 17.17921875 8.50328125 18 9 C16.3828125 9.703125 16.3828125 9.703125 14 10 C11.0546875 8.671875 11.0546875 8.671875 7.875 6.75 C6.82054687 6.12609375 5.76609375 5.5021875 4.6796875 4.859375 C2 3 2 3 0 0 Z " fill="#449625" transform="translate(517,748)"/>
<path d="M0 0 C0.33 0.99 0.66 1.98 1 3 C-0.22265625 4.98046875 -0.22265625 4.98046875 -2.0625 7.1875 C-2.70445312 7.97382813 -3.34640625 8.76015625 -4.0078125 9.5703125 C-4.66523438 10.37210937 -5.32265625 11.17390625 -6 12 C-7.15446173 13.51429395 -8.30109621 15.03460783 -9.4375 16.5625 C-9.93121094 17.22378906 -10.42492187 17.88507813 -10.93359375 18.56640625 C-11.28550781 19.03949219 -11.63742187 19.51257813 -12 20 C-12 16.01051344 -10.4883413 14.40082066 -8.25 11.125 C-7.55390625 10.09632813 -6.8578125 9.06765625 -6.140625 8.0078125 C-4.18137881 5.25485709 -2.14072744 2.61323034 0 0 Z " fill="#1B98F4" transform="translate(487,379)"/>
<path d="M0 0 C1.06863281 0.19464844 2.13726562 0.38929688 3.23828125 0.58984375 C4.45064453 0.82380859 4.45064453 0.82380859 5.6875 1.0625 C5.6875 1.7225 5.6875 2.3825 5.6875 3.0625 C6.6775 3.3925 7.6675 3.7225 8.6875 4.0625 C1.9017064 3.51386137 -4.66259036 2.51982062 -11.3125 1.0625 C-11.3125 0.7325 -11.3125 0.4025 -11.3125 0.0625 C-7.22971966 -1.02068662 -4.13371165 -0.77223185 0 0 Z " fill="#499747" transform="translate(471.3125,769.9375)"/>
<path d="M0 0 C3.90455937 1.42502167 7.24835962 3.26652127 10.75 5.5 C11.71421875 6.1084375 12.6784375 6.716875 13.671875 7.34375 C16 9 16 9 17 11 C12.04789578 10.56304963 9.69232625 8.153862 6 5 C5.071875 4.62875 4.14375 4.2575 3.1875 3.875 C2.465625 3.58625 1.74375 3.2975 1 3 C0.67 2.01 0.34 1.02 0 0 Z " fill="#419525" transform="translate(540,761)"/>
<path d="M0 0 C2.23775292 1.00313062 3.8507388 1.84476835 5.5625 3.625 C7.02978279 5.34561132 7.02978279 5.34561132 10 5 C11.5625 7.375 11.5625 7.375 13 10 C13.66 10.66 14.32 11.32 15 12 C10.82157922 12 8.841204 9.71491649 5.8125 7.125 C5.25369141 6.66480469 4.69488281 6.20460938 4.11914062 5.73046875 C2.70245974 4.53692808 1.34587798 3.27284584 0 2 C0 1.34 0 0.68 0 0 Z " fill="#1C4C36" transform="translate(411,966)"/>
<path d="M0 0 C0.99 0.66 1.98 1.32 3 2 C-0.3 4.97 -3.6 7.94 -7 11 C-7.66 10.34 -8.32 9.68 -9 9 C-6.03 6.03 -3.06 3.06 0 0 Z " fill="#176632" transform="translate(681,953)"/>
<path d="M0 0 C3 1 3 1 5 4 C5 5.32 5 6.64 5 8 C0.68607774 7.5206753 -1.16569547 6.2542015 -4 3 C-2.35 3 -0.7 3 1 3 C0.67 2.01 0.34 1.02 0 0 Z " fill="#3E9139" transform="translate(611,818)"/>
<path d="M0 0 C2.60334924 2.71182212 2.99456691 3.89133813 3.1875 7.75 C3.125625 8.8225 3.06375 9.895 3 11 C-0.76624671 12.25541557 -2.37188934 11.37061958 -6 10 C-6 9.67 -6 9.34 -6 9 C-4.02 8.67 -2.04 8.34 0 8 C-0.2784375 6.2984375 -0.2784375 6.2984375 -0.5625 4.5625 C-0.706875 3.386875 -0.85125 2.21125 -1 1 C-0.67 0.67 -0.34 0.34 0 0 Z " fill="#6FCDFA" transform="translate(480,569)"/>
<path d="M0 0 C0.66 0 1.32 0 2 0 C-0.41220784 6.30885126 -2.33340182 11.01806615 -8 15 C-6.62992438 11.34426939 -4.98982135 8.04532353 -3 4.6875 C-2.484375 3.80449219 -1.96875 2.92148438 -1.4375 2.01171875 C-0.7259375 1.01591797 -0.7259375 1.01591797 0 0 Z " fill="#1178EB" transform="translate(590,224)"/>
<path d="M0 0 C5.61 0 11.22 0 17 0 C17 0.99 17 1.98 17 3 C11.30948637 2.4618629 5.65134116 1.8599867 0 1 C0 0.67 0 0.34 0 0 Z " fill="#191918" transform="translate(1044,0)"/>
<path d="M0 0 C-0.33 0.99 -0.66 1.98 -1 3 C-6.61 3 -12.22 3 -18 3 C-18 2.67 -18 2.34 -18 2 C-15.93827387 1.66191314 -13.8755797 1.32972639 -11.8125 1 C-10.66394531 0.814375 -9.51539063 0.62875 -8.33203125 0.4375 C-5.49584607 0.06510523 -2.85280436 -0.08596021 0 0 Z " fill="#111211" transform="translate(1061,1251)"/>
<path d="M0 0 C5.62708022 0.72607487 11.95262202 2.95262202 16 7 C15.01 7.33 14.02 7.66 13 8 C11.31243867 7.03567924 9.6502694 6.0268343 8 5 C5.36074621 3.90603421 2.69315593 2.95858092 0 2 C0 1.34 0 0.68 0 0 Z " fill="#509F2C" transform="translate(461,721)"/>
<path d="M0 0 C0.66 0.66 1.32 1.32 2 2 C0.54712339 3.33927721 -0.91247259 4.67126847 -2.375 6 C-3.59316406 7.11375 -3.59316406 7.11375 -4.8359375 8.25 C-7 10 -7 10 -9 10 C-9.33 10.99 -9.66 11.98 -10 13 C-10.66 12.34 -11.32 11.68 -12 11 C-8.04 7.37 -4.08 3.74 0 0 Z " fill="#57A52F" transform="translate(801,597)"/>
<path d="M0 0 C0.99 0 1.98 0 3 0 C3 5.61 3 11.22 3 17 C2.67 17 2.34 17 2 17 C1.34 11.39 0.68 5.78 0 0 Z " fill="#1E1E1E" transform="translate(1251,194)"/>
<path d="M0 0 C0.66 0.33 1.32 0.66 2 1 C-7.37209302 8.18604651 -7.37209302 8.18604651 -11 10 C-11.66 9.67 -12.32 9.34 -13 9 C-9.99230897 5.49102713 -6.82092197 3.74777628 -2.70703125 1.83203125 C-1.01192589 1.12052968 -1.01192589 1.12052968 0 0 Z " fill="#1F703B" transform="translate(833,732)"/>
<path d="M0 0 C1.41655793 -0.0272415 2.83327045 -0.04650467 4.25 -0.0625 C5.43335938 -0.07990234 5.43335938 -0.07990234 6.640625 -0.09765625 C8.90691002 -0.00385306 10.8288895 0.36758937 13 1 C13 1.66 13 2.32 13 3 C13.99 3.33 14.98 3.66 16 4 C10.43109483 3.52013969 5.32932432 2.70084819 0 1 C0 0.67 0 0.34 0 0 Z " fill="#52994D" transform="translate(481,774)"/>
<path d="M0 0 C4.455 0.99 4.455 0.99 9 2 C9 2.66 9 3.32 9 4 C11.97 4.495 11.97 4.495 15 5 C11.52348473 6.19935725 9.30131722 5.80128318 5.8125 4.75 C4.93207031 4.49734375 4.05164063 4.2446875 3.14453125 3.984375 C2.43683594 3.65953125 1.72914063 3.3346875 1 3 C0.67 2.01 0.34 1.02 0 0 Z " fill="#519957" transform="translate(408,757)"/>
<path d="M0 0 C-0.33 0.99 -0.66 1.98 -1 3 C-5.61788672 4.4088468 -10.22422512 5.28363377 -15 6 C-10.8310781 2.35219334 -5.55196264 0 0 0 Z " fill="#74BC24" transform="translate(778,520)"/>
<path d="M0 0 C0.66 0.66 1.32 1.32 2 2 C-0.31 4.31 -2.62 6.62 -5 9 C-5.99 8.67 -6.98 8.34 -8 8 C-5.33333333 5.33333333 -2.66666667 2.66666667 0 0 Z " fill="#146731" transform="translate(704,933)"/>
<path d="M0 0 C-4.62440425 2.07626313 -9.1008651 3.70022952 -14 5 C-14.33 4.34 -14.66 3.68 -15 3 C-14.01 3 -13.02 3 -12 3 C-12 2.34 -12 1.68 -12 1 C-11.236875 0.855625 -10.47375 0.71125 -9.6875 0.5625 C-2.81944444 -0.875 -2.81944444 -0.875 0 0 Z " fill="#80D4FB" transform="translate(749,491)"/>
<path d="M0 0 C-2.46301423 2.46301423 -4.27360036 2.76766521 -7.625 3.625 C-8.62789062 3.88539063 -9.63078125 4.14578125 -10.6640625 4.4140625 C-11.43492187 4.60742188 -12.20578125 4.80078125 -13 5 C-12 2 -12 2 -10.0390625 1.015625 C-9.24242187 0.76296875 -8.44578125 0.5103125 -7.625 0.25 C-6.83351563 -0.01296875 -6.04203125 -0.2759375 -5.2265625 -0.546875 C-3 -1 -3 -1 0 0 Z " fill="#2E823F" transform="translate(764,760)"/>
<path d="M0 0 C0.33 0.66 0.66 1.32 1 2 C-2.47325181 3.1577506 -5.36067448 3.06866652 -9 3 C-9.33 3.66 -9.66 4.32 -10 5 C-10.66 4.34 -11.32 3.68 -12 3 C-10.3789897 2.30314502 -8.75303934 1.61777139 -7.125 0.9375 C-6.22007812 0.55464844 -5.31515625 0.17179688 -4.3828125 -0.22265625 C-2 -1 -2 -1 0 0 Z " fill="#90CC4A" transform="translate(753,529)"/>
<path d="M0 0 C0.66 0.33 1.32 0.66 2 1 C1 4 1 4 -0.77734375 4.984375 C-1.84662109 5.36335937 -1.84662109 5.36335937 -2.9375 5.75 C-4.00291016 6.14445313 -4.00291016 6.14445313 -5.08984375 6.546875 C-7 7 -7 7 -9 6 C-6.03 4.02 -3.06 2.04 0 0 Z " fill="#22733C" transform="translate(778,880)"/>
<path d="M0 0 C0.99 0.33 1.98 0.66 3 1 C1.71451591 2.33929505 0.42141845 3.67128643 -0.875 5 C-1.59429688 5.7425 -2.31359375 6.485 -3.0546875 7.25 C-5 9 -5 9 -7 9 C-5.44499019 5.18315774 -2.96404505 2.80804268 0 0 Z " fill="#56A632" transform="translate(762,635)"/>
<path d="M0 0 C0.99 1.32 1.98 2.64 3 4 C4.65 3.34 6.3 2.68 8 2 C8 2.66 8 3.32 8 4 C3.84732824 7.11450382 3.84732824 7.11450382 0.6875 6.6875 C0.130625 6.460625 -0.42625 6.23375 -1 6 C-0.67 4.02 -0.34 2.04 0 0 Z " fill="#4B9746" transform="translate(652,801)"/>
<path d="M0 0 C-1.0625 1.5 -1.0625 1.5 -3 3 C-6.6875 3.1875 -6.6875 3.1875 -10 3 C-10.33 3.66 -10.66 4.32 -11 5 C-11.66 4.34 -12.32 3.68 -13 3 C-11.21189234 2.30329584 -9.41937948 1.61788811 -7.625 0.9375 C-6.62726562 0.55464844 -5.62953125 0.17179687 -4.6015625 -0.22265625 C-2 -1 -2 -1 0 0 Z " fill="#83C149" transform="translate(820,507)"/>
<path d="M0 0 C0.66 0.33 1.32 0.66 2 1 C2 1.66 2 2.32 2 3 C0.46875 4.2890625 0.46875 4.2890625 -1.5 5.625 C-2.1496875 6.07101562 -2.799375 6.51703125 -3.46875 6.9765625 C-3.9740625 7.31429687 -4.479375 7.65203125 -5 8 C-5.66 7.34 -6.32 6.68 -7 6 C-4.69 4.02 -2.38 2.04 0 0 Z " fill="#1E7A33" transform="translate(541,915)"/>
<path d="M0 0 C4.59306496 1.4859916 7.43569245 3.85014682 11 7 C10.34 7.66 9.68 8.32 9 9 C8.67 8.34 8.34 7.68 8 7 C6.24063735 5.93489565 4.4283566 5.02623787 2.59375 4.09765625 C1 3 1 3 0 0 Z " fill="#419828" transform="translate(557,772)"/>
<path d="M0 0 C-2.05233685 2.2477975 -3.00667261 3.0022242 -6 4 C-8.33299825 4.03954234 -10.66708189 4.04401732 -13 4 C-8.66957446 0.44286474 -5.53947792 -0.15387439 0 0 Z " fill="#1C7234" transform="translate(797,749)"/>
<path d="M0 0 C0.66 0 1.32 0 2 0 C1.49436343 3.74171065 0.88706033 5.5571028 -2 8 C-2.556875 8.556875 -3.11375 9.11375 -3.6875 9.6875 C-4.120625 10.120625 -4.55375 10.55375 -5 11 C-4.46968862 6.4923533 -2.74778884 3.58045212 0 0 Z " fill="#0967E2" transform="translate(614,185)"/>
<path d="M0 0 C4.94026549 4.71570796 4.94026549 4.71570796 5.125 8.6875 C5.08375 9.450625 5.0425 10.21375 5 11 C2.25722422 7.80009492 0.3697164 4.99500618 -1 1 C-0.67 0.67 -0.34 0.34 0 0 Z " fill="#156530" transform="translate(350,888)"/>
<path d="M0 0 C3.63 0 7.26 0 11 0 C11.33 1.32 11.66 2.64 12 4 C6.06 2.515 6.06 2.515 0 1 C0 0.67 0 0.34 0 0 Z " fill="#549D50" transform="translate(508,781)"/>
<path d="M0 0 C1.22589844 0.29197266 1.22589844 0.29197266 2.4765625 0.58984375 C3.41628906 0.82380859 3.41628906 0.82380859 4.375 1.0625 C4.045 1.7225 3.715 2.3825 3.375 3.0625 C1.8949159 2.94887738 0.41589926 2.82127092 -1.0625 2.6875 C-1.88621094 2.61789062 -2.70992188 2.54828125 -3.55859375 2.4765625 C-4.24050781 2.33992187 -4.92242187 2.20328125 -5.625 2.0625 C-5.955 1.4025 -6.285 0.7425 -6.625 0.0625 C-3.99249612 -1.25375194 -2.82320944 -0.68563658 0 0 Z " fill="#47964B" transform="translate(433.625,762.9375)"/>
<path d="M0 0 C4.21912747 0.4794463 6.79663178 1.16625119 10 4 C8.375 4.6875 8.375 4.6875 6 5 C2.75 3.5625 2.75 3.5625 0 2 C0 1.34 0 0.68 0 0 Z " fill="#72B535" transform="translate(542,737)"/>
<path d="M0 0 C0.66 0.66 1.32 1.32 2 2 C-0.31 5.3 -2.62 8.6 -5 12 C-5.33 11.01 -5.66 10.02 -6 9 C-4.78515625 6.73828125 -4.78515625 6.73828125 -3.0625 4.3125 C-2.49660156 3.50425781 -1.93070313 2.69601562 -1.34765625 1.86328125 C-0.90292969 1.24839844 -0.45820312 0.63351562 0 0 Z " fill="#64B12E" transform="translate(668,709)"/>
<path d="M0 0 C2.31 0.66 4.62 1.32 7 2 C6.0409375 2.1546875 6.0409375 2.1546875 5.0625 2.3125 C4.381875 2.539375 3.70125 2.76625 3 3 C2.67 3.99 2.34 4.98 2 6 C0.68 4.68 -0.64 3.36 -2 2 C-1.34 2 -0.68 2 0 2 C0 1.34 0 0.68 0 0 Z " fill="#EFF6EA" transform="translate(412,689)"/>
<path d="M0 0 C0.66 0.33 1.32 0.66 2 1 C-1.96 4.465 -1.96 4.465 -6 8 C-7.32 7.34 -8.64 6.68 -10 6 C-8.3811004 4.96951963 -6.75467511 3.95085322 -5.125 2.9375 C-4.22007812 2.36902344 -3.31515625 1.80054688 -2.3828125 1.21484375 C-1.20332031 0.61349609 -1.20332031 0.61349609 0 0 Z " fill="#D6ECD0" transform="translate(811,587)"/>
<path d="M0 0 C0.99 0.33 1.98 0.66 3 1 C-0.96 4.465 -0.96 4.465 -5 8 C-5.66 7.67 -6.32 7.34 -7 7 C-4.69 4.69 -2.38 2.38 0 0 Z " fill="#1F6338" transform="translate(653,981)"/>
<path d="M0 0 C0.66 0.66 1.32 1.32 2 2 C-0.31 4.64 -2.62 7.28 -5 10 C-5.33 9.01 -5.66 8.02 -6 7 C-4.78515625 5.17578125 -4.78515625 5.17578125 -3.0625 3.3125 C-2.49660156 2.68988281 -1.93070313 2.06726563 -1.34765625 1.42578125 C-0.90292969 0.95527344 -0.45820312 0.48476563 0 0 Z " fill="#66B12D" transform="translate(684,688)"/>
<path d="M0 0 C4.30764815 1.56641751 8.06171464 3.68336156 12 6 C12 6.33 12 6.66 12 7 C9.15382151 7.517487 7.50716808 7.34894002 5.109375 5.69921875 C3.3339267 4.18720079 1.61626937 2.68147909 0 1 C0 0.67 0 0.34 0 0 Z " fill="#DAECC8" transform="translate(391,677)"/>
<path d="M0 0 C0.66 0 1.32 0 2 0 C0.50079488 3.11373372 -1.08152136 6.12228205 -3 9 C-3.66 9 -4.32 9 -5 9 C-4.42676569 5.13066838 -2.61046448 2.84777943 0 0 Z " fill="#1B91F3" transform="translate(512,343)"/>
<path d="M0 0 C-0.99 0 -1.98 0 -3 0 C-3 0.99 -3 1.98 -3 3 C-5.875 3.125 -5.875 3.125 -9 3 C-9.66 2.34 -10.32 1.68 -11 1 C-3.57142857 -1.42857143 -3.57142857 -1.42857143 0 0 Z " fill="#2E8645" transform="translate(859,762)"/>
<path d="M0 0 C0.66 0.33 1.32 0.66 2 1 C0.37750059 1.83819158 -1.24808497 2.6704116 -2.875 3.5 C-4.23238281 4.19609375 -4.23238281 4.19609375 -5.6171875 4.90625 C-8 6 -8 6 -10 6 C-10 5.34 -10 4.68 -10 4 C-3.375 1.125 -3.375 1.125 0 0 Z " fill="#116A30" transform="translate(819,740)"/>
<path d="M0 0 C0 0.66 0 1.32 0 2 C-3 3 -6 4 -9 5 C-9 4.01 -9 3.02 -9 2 C-3.375 0 -3.375 0 0 0 Z " fill="#6FBB27" transform="translate(807,511)"/>
<path d="M0 0 C0 0.99 0 1.98 0 3 C-2.64 3 -5.28 3 -8 3 C-5.53387212 -0.1151089 -3.89156016 -0.31553191 0 0 Z " fill="#6BB53C" transform="translate(872,485)"/>
<path d="M0 0 C2.37948772 0.17625835 3.70225849 0.69719773 5.37890625 2.40234375 C6.62115486 3.90649092 7.81376056 5.45129851 9 7 C6.62051228 6.82374165 5.29774151 6.30280227 3.62109375 4.59765625 C2.37884514 3.09350908 1.18623944 1.54870149 0 0 Z " fill="#090909" transform="translate(1180,64)"/>
<path d="M0 0 C0.99 0.33 1.98 0.66 3 1 C1.68 2.65 0.36 4.3 -1 6 C-1.99 5.67 -2.98 5.34 -4 5 C-2.68 3.35 -1.36 1.7 0 0 Z " fill="#E6EEE9" transform="translate(695,937)"/>
<path d="M0 0 C4.455 1.98 4.455 1.98 9 4 C9 4.66 9 5.32 9 6 C7.35 5.67 5.7 5.34 4 5 C4 4.34 4 3.68 4 3 C2.35 2.67 0.7 2.34 -1 2 C-0.67 1.34 -0.34 0.68 0 0 Z " fill="#6BB523" transform="translate(315,749)"/>
<path d="M0 0 C0.99 0.33 1.98 0.66 3 1 C-0.465 3.97 -0.465 3.97 -4 7 C-4.66 6.67 -5.32 6.34 -6 6 C-4.02 4.02 -2.04 2.04 0 0 Z " fill="#5CAA39" transform="translate(743,656)"/>
<path d="M0 0 C1.12588014 0.95729916 2.2506715 1.91587895 3.375 2.875 C4.00148438 3.40867187 4.62796875 3.94234375 5.2734375 4.4921875 C6.55836651 5.61432007 7.79371975 6.79371975 9 8 C6 8 6 8 4 7 C4 6.34 4 5.68 4 5 C3.01 4.67 2.02 4.34 1 4 C0.3125 1.9375 0.3125 1.9375 0 0 Z " fill="#22ADF8" transform="translate(670,375)"/>
<path d="M0 0 C0.33 0.99 0.66 1.98 1 3 C-2.0247093 7.70510336 -2.0247093 7.70510336 -5.14453125 8.6484375 C-5.75683594 8.76445313 -6.36914062 8.88046875 -7 9 C-6.02180976 7.68677212 -5.0424189 6.37443848 -4.0625 5.0625 C-3.51722656 4.33160156 -2.97195313 3.60070312 -2.41015625 2.84765625 C-1 1 -1 1 0 0 Z " fill="#175F33" transform="translate(638,997)"/>
<path d="M0 0 C0.66 0.33 1.32 0.66 2 1 C1.3125 2.9375 1.3125 2.9375 0 5 C-2.625 5.75 -2.625 5.75 -5 6 C-3.35 4.02 -1.7 2.04 0 0 Z " fill="#277D39" transform="translate(527,927)"/>
<path d="M0 0 C0 0.66 0 1.32 0 2 C-4.15267176 5.11450382 -4.15267176 5.11450382 -7.3125 4.6875 C-7.869375 4.460625 -8.42625 4.23375 -9 4 C-2.25 0 -2.25 0 0 0 Z " fill="#287844" transform="translate(811,863)"/>
<path d="M0 0 C0.99 0 1.98 0 3 0 C5.09230769 4.43076923 5.09230769 4.43076923 4.625 7.3125 C4.41875 7.869375 4.2125 8.42625 4 9 C0 2.25 0 2.25 0 0 Z " fill="#2A8242" transform="translate(334,861)"/>
<path d="M0 0 C0 0.66 0 1.32 0 2 C-6.96428571 5.34821429 -6.96428571 5.34821429 -11 4 C-9.5437455 3.32880451 -8.08492133 2.66318193 -6.625 2 C-5.81289063 1.62875 -5.00078125 1.2575 -4.1640625 0.875 C-2 0 -2 0 0 0 Z " fill="#2E7D48" transform="translate(846,847)"/>
<path d="M0 0 C4.41889613 1.35021826 6.34345343 3.26115668 9 7 C6.525 6.01 6.525 6.01 4 5 C4 4.34 4 3.68 4 3 C2.68 2.67 1.36 2.34 0 2 C0 1.34 0 0.68 0 0 Z " fill="#388C23" transform="translate(573,784)"/>
<path d="M0 0 C0 0.99 0 1.98 0 3 C-4.455 3.495 -4.455 3.495 -9 4 C-8.01 3.67 -7.02 3.34 -6 3 C-6 2.34 -6 1.68 -6 1 C-4.02 0.67 -2.04 0.34 0 0 Z " fill="#1C7631" transform="translate(780,753)"/>
<path d="M0 0 C0.99 0.33 1.98 0.66 3 1 C-0.465 3.97 -0.465 3.97 -4 7 C-4 4 -4 4 -2 1.8125 C-1.34 1.214375 -0.68 0.61625 0 0 Z " fill="#62AF2A" transform="translate(720,649)"/>
<path d="M0 0 C-2.49505962 2.49505962 -3.67328888 2.35948376 -7.125 2.625 C-8.03507813 2.69976562 -8.94515625 2.77453125 -9.8828125 2.8515625 C-10.93082031 2.92503906 -10.93082031 2.92503906 -12 3 C-11 1 -11 1 -9.375 0.375 C-6.2339425 -0.12095645 -3.17398169 -0.06103811 0 0 Z " fill="#72D1FB" transform="translate(804,475)"/>
<path d="M0 0 C0.66 0.33 1.32 0.66 2 1 C0.41641358 4.16717283 -0.45263699 5.73268318 -3.6875 7.3125 C-4.450625 7.539375 -5.21375 7.76625 -6 8 C-4.02 5.36 -2.04 2.72 0 0 Z " fill="#E1EDE5" transform="translate(567,1025)"/>
<path d="M0 0 C1.65 0 3.3 0 5 0 C4.34 1.32 3.68 2.64 3 4 C1.68 3.67 0.36 3.34 -1 3 C-0.67 2.01 -0.34 1.02 0 0 Z " fill="#1F573E" transform="translate(427,978)"/>
<path d="M0 0 C0.66 0.33 1.32 0.66 2 1 C0.75453595 4.73639216 -0.63404953 5.18756513 -4 7 C-4 4 -4 4 -2 1.8125 C-1.34 1.214375 -0.68 0.61625 0 0 Z " fill="#186531" transform="translate(692,943)"/>
<path d="M0 0 C-1.24546405 3.73639216 -2.63404953 4.18756513 -6 6 C-6.66 5.34 -7.32 4.68 -8 4 C-2.25 0 -2.25 0 0 0 Z " fill="#207038" transform="translate(769,887)"/>
<path d="M0 0 C2.97 0.99 5.94 1.98 9 3 C9 3.66 9 4.32 9 5 C2.25 3.375 2.25 3.375 0 0 Z " fill="#3B8B32" transform="translate(554,795)"/>
<path d="M0 0 C0 0.66 0 1.32 0 2 C-2.31 2.33 -4.62 2.66 -7 3 C-7 2.01 -7 1.02 -7 0 C-3.86650268 -1.04449911 -3.01031744 -0.93423645 0 0 Z " fill="#348A49" transform="translate(823,770)"/>
<path d="M0 0 C0.66 0.99 1.32 1.98 2 3 C0.68 4.32 -0.64 5.64 -2 7 C-2.99 6.67 -3.98 6.34 -5 6 C-3.35 4.02 -1.7 2.04 0 0 Z " fill="#59A739" transform="translate(733,667)"/>
<path d="M0 0 C0.66 0.33 1.32 0.66 2 1 C-0.97 4.96 -0.97 4.96 -4 9 C-4.33 8.34 -4.66 7.68 -5 7 C-3.35 4.69 -1.7 2.38 0 0 Z " fill="#1B94F5" transform="translate(505,353)"/>
<path d="M0 0 C0.66 0.66 1.32 1.32 2 2 C0.35 3.32 -1.3 4.64 -3 6 C-3 3 -3 3 -1.5 1.3125 C-0.7575 0.6628125 -0.7575 0.6628125 0 0 Z M-7 6 C-5 7 -5 7 -5 7 Z " fill="#0E0E0F" transform="translate(1174,1194)"/>
<path d="M0 0 C4.875 4.75 4.875 4.75 6 7 C4.125 6.6875 4.125 6.6875 2 6 C0 3 0 3 0 0 Z " fill="#151516" transform="translate(45,1156)"/>
<path d="M0 0 C-0.33 0.99 -0.66 1.98 -1 3 C-3.97 3 -6.94 3 -10 3 C-10 2.67 -10 2.34 -10 2 C-3.375 0 -3.375 0 0 0 Z " fill="#2B833F" transform="translate(787,779)"/>
<path d="M0 0 C-0.66 0.66 -1.32 1.32 -2 2 C-4.1640625 1.9765625 -4.1640625 1.9765625 -6.625 1.625 C-7.44226563 1.51414062 -8.25953125 1.40328125 -9.1015625 1.2890625 C-9.72804688 1.19367187 -10.35453125 1.09828125 -11 1 C-11 0.67 -11 0.34 -11 0 C-7.01803543 -1.05404945 -4.01804691 -0.84098656 0 0 Z " fill="#569D53" transform="translate(471,770)"/>
<path d="M0 0 C2.38564077 0.57584432 4.66682784 1.22227595 7 2 C7.33 2.99 7.66 3.98 8 5 C2.25 3.125 2.25 3.125 0 2 C0 1.34 0 0.68 0 0 Z " fill="#3E8B41" transform="translate(390,750)"/>
<path d="M0 0 C0.86625 0.3403125 0.86625 0.3403125 1.75 0.6875 C0 2.25 0 2.25 -2.25 3.6875 C-4.5 3.375 -4.5 3.375 -6.25 2.6875 C-2.80384615 -0.38942308 -2.80384615 -0.38942308 0 0 Z " fill="#7BBF26" transform="translate(741.25,533.3125)"/>
<path d="M0 0 C1.32 0.66 2.64 1.32 4 2 C-3.42857143 4.42857143 -3.42857143 4.42857143 -7 3 C-4 2 -4 2 0 2 C0 1.34 0 0.68 0 0 Z " fill="#6CCFFB" transform="translate(780,479)"/>
<path d="M0 0 C0.99 0.33 1.98 0.66 3 1 C1.35 2.65 -0.3 4.3 -2 6 C-2.66 5.67 -3.32 5.34 -4 5 C-4 4.34 -4 3.68 -4 3 C-2.1875 1.3125 -2.1875 1.3125 0 0 Z " fill="#121212" transform="translate(90,49)"/>
</svg>
